<?xml version="1.0" encoding="UTF-8" standalone="no"?>
<!-- Generator: Adobe Illustrator 12.0.1, SVG Export Plug-In . SVG Version: 6.00 Build 51448)  -->

<svg
   xmlns:dc="http://purl.org/dc/elements/1.1/"
   xmlns:cc="http://creativecommons.org/ns#"
   xmlns:rdf="http://www.w3.org/1999/02/22-rdf-syntax-ns#"
   xmlns:svg="http://www.w3.org/2000/svg"
   xmlns="http://www.w3.org/2000/svg"
   xmlns:sodipodi="http://sodipodi.sourceforge.net/DTD/sodipodi-0.dtd"
   xmlns:inkscape="http://www.inkscape.org/namespaces/inkscape"
   version="1.1"
   id="Layer_1"
   width="482.519"
   height="581.189"
   viewBox="0 0 482.519 581.189"
   overflow="visible"
   
   xml:space="preserve"
   inkscape:version="0.47 r22583"
   sodipodi:docname="Lungs_diagram_simple.svg"><metadata
   id="metadata163"><rdf:RDF><cc:Work
       rdf:about=""><dc:format>image/svg+xml</dc:format><dc:type
         rdf:resource="http://purl.org/dc/dcmitype/StillImage" /><dc:title></dc:title><cc:license
         rdf:resource="http://creativecommons.org/licenses/by/3.0/" /><dc:date>2006</dc:date><dc:creator><cc:Agent><dc:title>Patrick J. Lynch</dc:title></cc:Agent></dc:creator></cc:Work><cc:License
       rdf:about="http://creativecommons.org/licenses/by/3.0/"><cc:permits
         rdf:resource="http://creativecommons.org/ns#Reproduction" /><cc:permits
         rdf:resource="http://creativecommons.org/ns#Distribution" /><cc:requires
         rdf:resource="http://creativecommons.org/ns#Notice" /><cc:requires
         rdf:resource="http://creativecommons.org/ns#Attribution" /><cc:permits
         rdf:resource="http://creativecommons.org/ns#DerivativeWorks" /></cc:License></rdf:RDF></metadata><defs
   id="defs161"><inkscape:perspective
     sodipodi:type="inkscape:persp3d"
     inkscape:vp_x="0 : 290.59451 : 1"
     inkscape:vp_y="0 : 1000 : 0"
     inkscape:vp_z="482.51901 : 290.59451 : 1"
     inkscape:persp3d-origin="241.25951 : 193.72968 : 1"
     id="perspective165" /></defs><sodipodi:namedview
   pagecolor="#ffffff"
   bordercolor="#666666"
   borderopacity="1"
   objecttolerance="10"
   gridtolerance="10"
   guidetolerance="10"
   inkscape:pageopacity="0"
   inkscape:pageshadow="2"
   inkscape:window-width="1309"
   inkscape:window-height="982"
   id="namedview159"
   showgrid="false"
   inkscape:zoom="4.5940909"
   inkscape:cx="59.102872"
   inkscape:cy="78.520246"
   inkscape:window-x="0"
   inkscape:window-y="0"
   inkscape:window-maximized="0"
   inkscape:current-layer="Layer_1" />
<g
   id="g3">
	<path
   fill="#eeeeee"
   d="M195.41,13.604c0.852-3.835,2.13-7.244,3.692-9.374c1.562-2.13,2.557-3.692,3.551-3.267   c0.994,0.426,1.562,1.42,1.278,3.551c-0.285,2.13-2.557,8.379-3.267,11.362c-0.71,2.982-1.562,4.829,0.568,3.977   s6.107-4.119,8.947-5.823s7.243-4.403,10.936-3.409s6.391,1.278,8.095,4.261c1.705,2.982,3.835,6.817,5.113,9.799   c1.278,2.982,3.408,4.687,4.687,0.143c1.278-4.545,3.267-11.362,4.829-13.066c1.562-1.704,2.981-3.267,6.391-2.13   c3.408,1.136,7.102,2.272,10.936,4.403c3.835,2.13,7.527,3.977,8.948,3.692c1.42-0.284,1.703-1.278,1.562-2.698   s-1.988-6.391-2.415-8.521c-0.426-2.13-0.709-4.402-0.426-5.113c0.285-0.71,1.847-1.704,3.125,0   c1.278,1.705,4.261,6.959,4.687,9.231c0.427,2.272,0.71,11.93,0.142,14.628c-0.567,2.698-2.698,6.817-4.26,8.947   c-1.562,2.13-3.268,3.834-4.119,8.806c-0.853,4.971-1.278,9.231-1.704,13.208s-0.568,4.971-1.562,6.533   c-0.994,1.562-3.314,2.826-4.118,5.539c-1.137,3.834-1.562,5.965-1.562,8.805s0.142,7.527-0.568,8.664   c-0.71,1.136-2.098,1.84-1.278,3.55c0.82,1.71,1.847,3.835,1.988,6.107c0.143,2.272,0.711,5.113-0.283,6.533   s-2.557,1.705-2.06,3.195c0.497,1.491,1.633,2.343,1.917,4.19c0.284,1.846,0.997,7.281,0,9.231s-1.988,1.704-1.846,3.267   c0.142,1.562,1.136,2.698,1.988,3.977c0.852,1.278,0.142,4.971,0.283,6.959c0.143,1.988-0.28,3.163-0.852,4.119   s-1.847,2.414-1.491,3.763c0.354,1.35,2.201,2.627,2.201,4.19c0,1.562,0.71,6.391,0.142,7.669c-0.568,1.278-1.42,2.698-1.988,3.692   c-0.567,0.994-0.349,2.142,0.82,3.841c1.168,1.698,1.452,5.107,1.168,6.953c-0.283,1.846,0,3.834-0.852,4.687   c-0.852,0.852-1.42,0.852-1.278,2.414c0.142,1.562,1.42,2.699,1.847,3.977c0.426,1.278,1.136,4.403,0.283,7.102   c-0.852,2.698-0.283,2.272-0.994,3.834c-0.709,1.562-1.562,1.846-1.277,3.125c0.283,1.278,1.277,2.698,2.13,3.977   s0.853,5.255,0.142,7.243c-0.71,1.988-0.142,2.698-0.71,3.55c-0.567,0.853-1.562,1.989-1.562,3.267   c0,1.278,1.277,2.983,1.988,4.261c0.71,1.278,0.852,4.971,0.426,6.391s-0.284,3.125-0.853,4.119   c-0.567,0.994-1.846,1.988-1.562,3.408c0.283,1.42,1.703,4.971,1.846,7.527c0.143,2.557,0.284,5.965-0.568,6.817   c-0.852,0.852-1.136,2.699-2.556,5.681c-1.42,2.982-2.841,7.243-3.267,10.368c-0.426,3.125-2.557,8.947-3.125,12.355   c-0.567,3.409-2.698,7.812-2.698,12.072s0.143,8.664,0.143,8.664s-0.994-0.284-2.841,0c-1.847,0.284-6.249,1.988-7.102,3.267   c-0.852,1.278-2.982,3.834-2.982,3.834s0.994-7.385-0.852-12.072c-1.847-4.687-6.675-15.623-8.38-18.179   c-1.704-2.556-7.101-10.509-7.527-11.788c-0.426-1.279-1.846-2.841-1.846-4.687c0-1.847,0.142-1.705,0.852-3.267   c0.71-1.562,1.136-1.847,0.426-5.681c-0.709-3.835-1.704-9.232-0.994-10.51c0.71-1.278,1.421-3.692,1.421-6.106   c0-2.415-1.847-5.397-1.847-8.522c0-3.124,0.71-5.254,0.71-5.254s0.709-0.568,0.852-2.272c0.143-1.704-0.71-4.119-0.852-6.107   c-0.143-1.988-0.994-7.101-0.568-8.379s1.136-1.847,1.42-3.409c0.285-1.562-0.71-4.261-0.852-6.675   c-0.143-2.415-0.853-6.817-0.568-7.811c0.284-0.995,0.71-1.846,1.136-3.267s-0.426-2.982-0.568-5.539   c-0.143-2.557-0.994-7.811-0.285-8.663c0.71-0.853,0.285-0.994,0.71-2.415s0.284-1.562-0.284-4.971   c-0.568-3.409-0.852-8.521-0.426-9.374c0.426-0.852,1.136-1.988,1.136-3.834s-0.426-3.409-0.568-4.687s-1.278-8.379-0.852-9.657   s0.71-1.846,1.136-2.982c0.426-1.137,0.284-3.267-0.284-5.539c-0.568-2.272-1.562-6.675-0.71-8.237   c0.853-1.562,0.71-2.698,0.995-3.692c0.284-0.994-0.284-2.415-0.568-4.403c-0.285-1.988-0.994-7.243-0.568-8.379   s0.568-1.988,0.994-3.267s0.284-2.13-0.142-4.261c-0.426-2.13-1.136-4.971-0.994-6.391s-0.568-4.261-0.568-6.249   s-0.994-3.551-1.42-3.977c-0.426-0.426-2.13-1.562-3.551-5.681c-1.42-4.119-1.42-7.669-2.556-12.356   c-1.137-4.687-2.982-8.663-5.255-11.93s-6.107-6.959-6.959-10.936c-0.852-3.977-1.136-8.521-0.143-12.356L195.41,13.604z"
   id="path5" />
	<path
   fill="#333333"
   d="M228.166,44.125c0.152-0.537,0.051-1.122,0.051-1.69c1.961,3.055-0.815,5.904-2.84,7.953   C225.692,48.017,227.527,46.371,228.166,44.125z"
   id="path7" />
	<path
   fill="#333333"
   d="M224.954,145.279c-3.387-0.921-5.64-2.143-7.101-2.732c-1.028-0.416-1.794-0.365-1.921-0.341   c-0.746,0.142-0.802,1.124-0.894,1.72c-0.534,3.468-0.119,6.774,0.66,10.166c0.893,3.882,2.931,3.63,6.414,4.677   c5.07,1.523,12.845,2.479,19.094,2.2c6.317-0.282,11.438-1.791,16.974-4.954c0.569-0.326,1.813-1.595,1.968-2.314   c0.864-4.045,0.747-8.386-1.02-12.079c-0.104-0.218-0.629,0.78-0.658,1.336c-0.142,2.716,0.789,6.024,0.091,8.583   c-0.243,0.89-0.199,1.666-0.984,2.353c-0.292,0.256-0.982,0.785-1.287,1.019c-6.356,4.887-15.386,4.946-23.274,4.333   c-3.259-0.254-7.697-0.729-10.941-1.701c-1.862-0.558-3.33-1.28-3.957-2.218c-0.307-0.458-0.675-1.021-0.908-1.711   c-0.219-0.652-0.437-1.27-0.584-1.733c-0.514-1.61-0.519-2.668-0.565-4.387c-0.018-0.628,0.125-1.081,0.091-1.93   c-0.078-1.939,0.84-1.962,1.487-1.823c0.641,0.138,1.067,0.315,1.99,0.6c0.525,0.163,1.917,0.887,3.842,1.419   c6.106,1.691,14.691,3.195,20.854,2.686c4.979-0.412,9.948-1.753,14.164-4.914c0.555-0.416,0.223-0.599-0.054-0.541   c-0.791,0.164-1.392,0.652-2.007,0.989c-0.441,0.241-1.03,0.638-1.436,0.861c-2.063,1.138-3.85,2.029-8.553,2.741   C240.633,148.464,231.43,147.041,224.954,145.279z"
   id="path9" />
	<g
   id="g11">
		<path
   fill="none"
   stroke="#333333"
   stroke-width="0.8521"
   stroke-linecap="round"
   stroke-linejoin="round"
   d="M216.358,142.134    C216.358,142.134,215.718,142.916,216.358,142.134c0.639-0.781,0.852-2.982,0.284-4.119"
   id="path13" />
	</g>
	<path
   fill="none"
   stroke="#333333"
   stroke-width="0.8521"
   stroke-linecap="round"
   stroke-linejoin="round"
   d="M258.751,143.27   c0,0-1.278-1.278-1.491-2.627c-0.222-1.404,1.065-3.053,1.065-3.053"
   id="path15" />
	<path
   fill="#333333"
   d="M224.954,162.321c-3.387-0.921-5.64-2.143-7.101-2.732c-1.028-0.415-1.794-0.365-1.921-0.341   c-0.746,0.142-0.802,1.124-0.894,1.72c-0.534,3.468-0.119,6.774,0.66,10.166c0.893,3.883,2.931,3.63,6.414,4.677   c5.07,1.523,12.845,2.479,19.094,2.2c6.317-0.282,11.438-1.791,16.974-4.954c0.569-0.325,1.813-1.595,1.968-2.314   c0.864-4.045,0.747-8.386-1.02-12.079c-0.104-0.218-0.629,0.781-0.658,1.336c-0.142,2.716,0.789,6.024,0.091,8.583   c-0.243,0.89-0.199,1.666-0.984,2.353c-0.292,0.256-0.982,0.785-1.287,1.02c-6.356,4.887-15.386,4.946-23.274,4.332   c-3.259-0.253-7.697-0.728-10.941-1.701c-1.862-0.558-3.33-1.28-3.957-2.218c-0.307-0.458-0.675-1.021-0.908-1.711   c-0.219-0.653-0.437-1.271-0.584-1.733c-0.514-1.61-0.519-2.668-0.565-4.386c-0.018-0.628,0.125-1.081,0.091-1.931   c-0.078-1.939,0.84-1.961,1.487-1.823c0.641,0.137,1.067,0.314,1.99,0.6c0.525,0.163,1.917,0.887,3.842,1.419   c6.106,1.691,14.691,3.196,20.854,2.686c4.979-0.412,9.948-1.752,14.164-4.913c0.555-0.417,0.223-0.599-0.054-0.541   c-0.791,0.165-1.392,0.652-2.007,0.989c-0.441,0.241-1.03,0.638-1.436,0.861c-2.063,1.139-3.85,2.029-8.553,2.742   C240.633,165.507,231.43,164.084,224.954,162.321z"
   id="path17" />
	<g
   id="g19">
		<path
   fill="none"
   stroke="#333333"
   stroke-width="0.8521"
   stroke-linecap="round"
   stroke-linejoin="round"
   d="M216.358,159.177    C216.358,159.177,215.718,159.958,216.358,159.177c0.639-0.781,0.852-2.982,0.284-4.119"
   id="path21" />
	</g>
	<path
   fill="none"
   stroke="#333333"
   stroke-width="0.8521"
   stroke-linecap="round"
   stroke-linejoin="round"
   d="M258.751,160.313   c0,0-1.278-1.278-1.491-2.627c-0.222-1.405,1.065-3.053,1.065-3.053"
   id="path23" />
	<path
   fill="#333333"
   d="M224.954,179.08c-3.387-0.921-5.64-2.142-7.101-2.732c-1.028-0.416-1.794-0.365-1.921-0.341   c-0.746,0.142-0.802,1.124-0.894,1.72c-0.534,3.468-0.119,6.775,0.66,10.166c0.893,3.882,2.931,3.63,6.414,4.677   c5.07,1.523,12.845,2.479,19.094,2.2c6.317-0.282,11.438-1.791,16.974-4.954c0.569-0.326,1.813-1.595,1.968-2.315   c0.864-4.044,0.747-8.385-1.02-12.079c-0.104-0.218-0.629,0.781-0.658,1.336c-0.142,2.716,0.789,6.024,0.091,8.583   c-0.243,0.89-0.199,1.667-0.984,2.353c-0.292,0.256-0.982,0.785-1.287,1.019c-6.356,4.887-15.386,4.946-23.274,4.332   c-3.259-0.253-7.697-0.728-10.941-1.7c-1.862-0.558-3.33-1.28-3.957-2.218c-0.307-0.458-0.675-1.021-0.908-1.711   c-0.219-0.653-0.437-1.271-0.584-1.733c-0.514-1.61-0.519-2.668-0.565-4.387c-0.018-0.628,0.125-1.08,0.091-1.93   c-0.078-1.939,0.84-1.962,1.487-1.824c0.641,0.138,1.067,0.315,1.99,0.601c0.525,0.163,1.917,0.887,3.842,1.419   c6.106,1.691,14.691,3.196,20.854,2.686c4.979-0.412,9.948-1.752,14.164-4.913c0.555-0.416,0.223-0.598-0.054-0.541   c-0.791,0.164-1.392,0.652-2.007,0.989c-0.441,0.242-1.03,0.638-1.436,0.861c-2.063,1.138-3.85,2.029-8.553,2.742   C240.633,182.265,231.43,180.842,224.954,179.08z"
   id="path25" />
	<g
   id="g27">
		<path
   fill="none"
   stroke="#333333"
   stroke-width="0.8521"
   stroke-linecap="round"
   stroke-linejoin="round"
   d="M216.358,175.936    C216.358,175.936,215.718,176.716,216.358,175.936c0.639-0.781,0.852-2.982,0.284-4.119"
   id="path29" />
	</g>
	<path
   fill="none"
   stroke="#333333"
   stroke-width="0.8521"
   stroke-linecap="round"
   stroke-linejoin="round"
   d="M258.751,177.072   c0,0-1.278-1.278-1.491-2.627c-0.222-1.405,1.065-3.054,1.065-3.054"
   id="path31" />
	<g
   id="g33">
		<path
   fill="none"
   stroke="#333333"
   stroke-width="0.8521"
   stroke-linecap="round"
   stroke-linejoin="round"
   d="M216.358,123.956    C216.358,123.956,215.718,124.736,216.358,123.956c0.639-0.781,0.852-2.983,0.284-4.119"
   id="path35" />
	</g>
	<g
   id="g37">
		<g
   id="g39">
			<path
   fill="#333333"
   d="M224.954,127.1c-3.387-0.921-5.64-2.142-7.101-2.732c-1.028-0.415-1.794-0.365-1.921-0.341     c-0.746,0.142-0.802,1.124-0.894,1.72c-0.534,3.468-0.119,6.775,0.66,10.166c0.893,3.882,2.931,3.63,6.414,4.676     c5.07,1.524,12.845,2.479,19.094,2.201c6.317-0.282,11.438-1.791,16.974-4.954c0.569-0.326,1.813-1.595,1.968-2.315     c0.864-4.044,0.747-8.385-1.02-12.079c-0.104-0.218-0.629,0.781-0.658,1.336c-0.142,2.717,0.789,6.024,0.091,8.583     c-0.243,0.89-0.199,1.666-0.984,2.353c-0.292,0.256-0.982,0.784-1.287,1.019c-6.356,4.887-15.386,4.946-23.274,4.333     c-3.259-0.254-7.697-0.729-10.941-1.701c-1.862-0.558-3.33-1.28-3.957-2.218c-0.307-0.458-0.675-1.021-0.908-1.711     c-0.219-0.653-0.437-1.27-0.584-1.733c-0.514-1.61-0.519-2.667-0.565-4.386c-0.018-0.628,0.125-1.081,0.091-1.93     c-0.078-1.939,0.84-1.962,1.487-1.823c0.641,0.137,1.067,0.315,1.99,0.6c0.525,0.163,1.917,0.886,3.842,1.419     c6.106,1.69,14.691,3.195,20.854,2.686c4.979-0.412,9.948-1.752,14.164-4.913c0.555-0.416,0.223-0.599-0.054-0.541     c-0.791,0.165-1.463,0.297-2.078,0.634c-0.44,0.241-1.029,0.638-1.435,0.861c-2.064,1.139-3.851,2.029-8.554,2.742     C240.562,129.93,231.43,128.862,224.954,127.1z"
   id="path41" />
		</g>
		<path
   fill="none"
   stroke="#333333"
   stroke-width="0.8521"
   stroke-linecap="round"
   stroke-linejoin="round"
   d="M258.751,125.091    c0,0-1.278-1.278-1.491-2.627c-0.222-1.404,1.065-3.053,1.065-3.053"
   id="path43" />
	</g>
	<g
   id="g45">
		<path
   fill="none"
   stroke="#333333"
   stroke-width="0.8521"
   stroke-linecap="round"
   stroke-linejoin="round"
   d="M216.358,106.628    C216.358,106.628,215.718,107.41,216.358,106.628c0.639-0.781,0.852-2.982,0.284-4.119"
   id="path47" />
	</g>
	<g
   id="g49">
		<g
   id="g51">
			<path
   fill="#333333"
   d="M224.954,109.773c-3.387-0.922-5.64-2.143-7.101-2.732c-1.028-0.416-1.794-0.365-1.921-0.341     c-0.746,0.142-0.802,1.124-0.894,1.72c-0.534,3.468-0.119,6.775,0.66,10.166c0.893,3.883,2.931,3.631,6.414,4.677     c5.07,1.524,12.845,2.479,19.094,2.2c6.317-0.281,11.438-1.791,16.974-4.953c0.569-0.326,1.813-1.595,1.968-2.314     c0.864-4.045,0.747-8.386-1.02-12.079c-0.104-0.218-0.629,0.78-0.658,1.336c-0.142,2.716,0.789,6.024,0.091,8.583     c-0.243,0.89-0.199,1.666-0.984,2.353c-0.292,0.256-0.982,0.785-1.287,1.019c-6.356,4.887-15.386,4.946-23.274,4.332     c-3.259-0.254-7.697-0.728-10.941-1.7c-1.862-0.558-3.33-1.28-3.957-2.218c-0.307-0.458-0.675-1.021-0.908-1.711     c-0.219-0.653-0.437-1.27-0.584-1.733c-0.514-1.61-0.519-2.667-0.565-4.386c-0.018-0.628,0.125-1.081,0.091-1.931     c-0.078-1.938,0.84-1.961,1.487-1.823c0.641,0.138,1.067,0.315,1.99,0.601c0.525,0.162,1.917,0.887,3.842,1.419     c6.106,1.691,14.691,3.195,20.854,2.686c4.979-0.412,9.948-1.753,14.164-4.914c0.555-0.416,0.223-0.599-0.054-0.541     c-0.791,0.165-1.463,0.297-2.078,0.634c-0.44,0.241-1.029,0.638-1.435,0.861c-2.064,1.139-3.851,2.029-8.554,2.742     C240.562,112.604,231.43,111.536,224.954,109.773z"
   id="path53" />
		</g>
		<path
   fill="none"
   stroke="#333333"
   stroke-width="0.8521"
   stroke-linecap="round"
   stroke-linejoin="round"
   d="M258.751,107.765    c0,0-1.278-1.278-1.491-2.627c-0.222-1.404,1.065-3.053,1.065-3.053"
   id="path55" />
	</g>
	<g
   id="g57">
		<path
   fill="none"
   stroke="#333333"
   stroke-width="0.8521"
   stroke-linecap="round"
   stroke-linejoin="round"
   d="M216.358,90.154    C216.358,90.154,215.718,90.935,216.358,90.154c0.639-0.781,0.852-2.982,0.284-4.118"
   id="path59" />
	</g>
	<g
   id="g61">
		<path
   fill="#333333"
   d="M224.954,93.298c-3.387-0.921-5.64-2.143-7.101-2.732c-1.028-0.415-1.794-0.366-1.921-0.341    c-0.746,0.142-0.802,1.124-0.894,1.72c-0.534,3.468-0.119,6.775,0.66,10.166c0.893,3.883,2.931,3.63,6.414,4.677    c5.07,1.523,12.845,2.479,19.094,2.2c6.317-0.281,11.438-1.791,16.974-4.953c0.569-0.326,1.813-1.595,1.968-2.314    c0.864-4.045,0.747-8.386-1.02-12.08c-0.104-0.218-0.629,0.781-0.658,1.336c-0.142,2.716,0.789,6.024,0.091,8.583    c-0.243,0.89-0.199,1.667-0.984,2.354c-0.292,0.256-0.982,0.785-1.287,1.019c-6.356,4.887-15.386,4.946-23.274,4.332    c-3.259-0.254-7.697-0.728-10.941-1.7c-1.862-0.558-3.33-1.28-3.957-2.218c-0.307-0.458-0.675-1.021-0.908-1.71    c-0.219-0.653-0.437-1.271-0.584-1.733c-0.514-1.61-0.519-2.668-0.565-4.387c-0.018-0.628,0.125-1.081,0.091-1.931    c-0.078-1.938,0.84-1.961,1.487-1.823c0.641,0.137,1.067,0.315,1.99,0.6c0.525,0.162,1.917,0.886,3.842,1.419    c6.106,1.69,14.691,3.195,20.854,2.686c4.979-0.412,9.948-1.753,14.164-4.914c0.555-0.417,0.223-0.599-0.054-0.541    c-0.791,0.165-1.463,0.298-2.078,0.634c-0.44,0.241-1.029,0.638-1.435,0.861c-2.064,1.138-3.851,2.03-8.554,2.742    C240.562,96.129,231.43,95.061,224.954,93.298z"
   id="path63" />
	</g>
	<path
   fill="none"
   stroke="#333333"
   stroke-width="0.8521"
   stroke-linecap="round"
   stroke-linejoin="round"
   d="M259.603,83.763   c-0.426,1.846-1.42,2.272-1.988,3.408c-0.567,1.136,0.426,2.699,1.137,4.119c0,0-1.278-1.278-1.491-2.627   c-0.222-1.405,1.065-3.054,1.065-3.054"
   id="path65" />
	<path
   fill="#333333"
   d="M224.954,76.824c-0.485-0.132-0.928-0.458-1.388-0.412c-2.451,0.25-3.112,2.729-4.364,2.224   c-1.028-0.415-2.291-1.075-2.418-1.051c-0.745,0.142-1.725-2-1.816-1.404c-0.533,3.468-0.047,6.064,0.731,9.456   c0.893,3.882,2.931,3.63,6.414,4.676c5.07,1.523,12.845,2.479,19.094,2.2c6.317-0.281,11.438-1.791,16.974-4.953   c0.569-0.326,1.813-1.595,1.968-2.315c0.864-4.044,0.747-8.385-1.02-12.079c-0.104-0.218-0.629,0.781-0.658,1.336   c-0.142,2.716,0.789,6.024,0.091,8.583c-0.243,0.89-0.199,1.666-0.984,2.353c-0.292,0.256-0.982,0.785-1.287,1.019   c-6.356,4.887-15.386,4.946-23.274,4.332c-3.259-0.253-7.697-0.728-10.941-1.7c-1.862-0.558-3.33-1.28-3.957-2.218   c-0.307-0.458-0.675-1.021-0.908-1.711c-0.219-0.653-0.437-1.271-0.584-1.734c-0.514-1.61-0.519-2.667-0.565-4.386   c-0.018-0.628-0.158-0.655-0.192-1.505c-0.078-1.939,1.692,1.021,2.339,1.16c0.641,0.137,1.635-0.75,2.558-0.465   c0.428,0.132,0.292-1.708,1.685-1.238c0.32,0.108,0.662,0.215,1.022,0.314c6.106,1.691,14.621,3.693,20.782,3.183   c4.979-0.412,10.02-2.249,14.235-5.41c0.555-0.416,0.223-0.599-0.054-0.541c-0.791,0.164-1.036,1.149-1.651,1.486   c-0.898,0.492-1.146,0.207-2.074,0.719c-2.064,1.139-3.708,1.817-8.412,2.529C240.491,80.151,231.43,78.586,224.954,76.824z"
   id="path67" />
	<path
   fill="#333333"
   d="M224.954,197.117c-3.387-0.921-5.64-2.143-7.101-2.732c-1.028-0.416-1.794-0.365-1.921-0.341   c-0.746,0.143-0.802,1.124-0.894,1.72c-0.534,3.468-0.119,6.775,0.66,10.166c0.893,3.882,2.931,3.63,6.414,4.677   c5.07,1.523,12.845,2.479,19.094,2.2c6.317-0.281,11.438-1.791,16.974-4.953c0.569-0.326,1.813-1.595,1.968-2.315   c0.864-4.044,0.747-8.385-1.02-12.079c-0.104-0.218-0.629,0.78-0.658,1.336c-0.142,2.716,0.789,6.024,0.091,8.583   c-0.243,0.89-0.199,1.666-0.984,2.353c-0.292,0.256-0.982,0.785-1.287,1.019c-6.356,4.887-15.386,4.946-23.274,4.333   c-3.259-0.254-7.697-0.728-10.941-1.7c-1.862-0.558-3.33-1.28-3.957-2.218c-0.307-0.458-0.675-1.021-0.908-1.711   c-0.219-0.653-0.437-1.271-0.584-1.733c-0.514-1.61-0.519-2.667-0.565-4.386c-0.018-0.629,0.125-1.081,0.091-1.931   c-0.078-1.939,0.84-1.962,1.487-1.823c0.641,0.138,1.067,0.315,1.99,0.601c0.525,0.163,1.917,0.886,3.842,1.419   c6.106,1.691,14.691,3.195,20.854,2.686c4.979-0.412,9.948-1.752,14.164-4.913c0.555-0.416,0.223-0.598-0.054-0.541   c-0.791,0.165-1.392,0.653-2.007,0.99c-0.441,0.241-1.03,0.637-1.436,0.861c-2.063,1.138-3.85,2.029-8.553,2.742   C240.633,200.302,231.43,198.879,224.954,197.117z"
   id="path69" />
	<g
   id="g71">
		<path
   fill="none"
   stroke="#333333"
   stroke-width="0.8521"
   stroke-linecap="round"
   stroke-linejoin="round"
   d="M216.358,193.972    C216.358,193.972,215.718,194.753,216.358,193.972c0.639-0.781,0.852-2.982,0.284-4.119"
   id="path73" />
	</g>
	<path
   fill="none"
   stroke="#333333"
   stroke-width="0.8521"
   stroke-linecap="round"
   stroke-linejoin="round"
   d="M258.751,195.108   c0,0-1.278-1.278-1.491-2.627c-0.222-1.405,1.065-3.053,1.065-3.053"
   id="path75" />
	<path
   fill="#333333"
   d="M224.954,215.438c-3.387-0.921-5.64-2.143-7.101-2.732c-1.028-0.416-1.794-0.366-1.921-0.341   c-0.746,0.142-0.802,1.124-0.894,1.72c-0.534,3.467-0.119,6.775,0.66,10.166c0.893,3.882,2.931,3.631,6.414,4.677   c5.07,1.522,12.845,2.478,19.094,2.2c6.317-0.282,11.438-1.791,16.974-4.954c0.569-0.325,1.813-1.595,1.968-2.314   c0.864-4.045,0.747-8.385-1.02-12.079c-0.104-0.218-0.629,0.781-0.658,1.336c-0.142,2.716,0.789,6.024,0.091,8.583   c-0.243,0.89-0.199,1.667-0.984,2.354c-0.292,0.256-0.982,0.785-1.287,1.019c-6.356,4.886-15.386,4.946-23.274,4.333   c-3.259-0.254-7.697-0.729-10.941-1.701c-1.862-0.558-3.33-1.28-3.957-2.218c-0.307-0.458-0.675-1.021-0.908-1.711   c-0.219-0.653-0.437-1.271-0.584-1.733c-0.514-1.611-0.519-2.668-0.565-4.387c-0.018-0.628,0.125-1.08,0.091-1.93   c-0.078-1.939,0.84-1.961,1.487-1.823c0.641,0.138,1.067,0.315,1.99,0.6c0.525,0.163,1.917,0.887,3.842,1.419   c6.106,1.691,14.691,3.196,20.854,2.686c4.979-0.412,9.948-1.752,14.164-4.913c0.555-0.417,0.223-0.599-0.054-0.541   c-0.791,0.165-1.392,0.653-2.007,0.989c-0.441,0.241-1.03,0.638-1.436,0.861c-2.063,1.139-3.85,2.029-8.553,2.742   C240.633,218.623,231.43,217.2,224.954,215.438z"
   id="path77" />
	<g
   id="g79">
		<path
   fill="none"
   stroke="#333333"
   stroke-width="0.8521"
   stroke-linecap="round"
   stroke-linejoin="round"
   d="M216.358,212.293    C216.358,212.293,215.718,213.074,216.358,212.293c0.639-0.781,0.852-2.982,0.284-4.119"
   id="path81" />
	</g>
	<path
   fill="none"
   stroke="#333333"
   stroke-width="0.8521"
   stroke-linecap="round"
   stroke-linejoin="round"
   d="M258.751,213.429   c0,0-1.278-1.278-1.491-2.627c-0.222-1.405,1.065-3.053,1.065-3.053"
   id="path83" />
	<path
   fill="#333333"
   d="M224.954,233.617c-3.387-0.922-5.64-2.143-7.101-2.733c-1.028-0.415-1.794-0.365-1.921-0.341   c-0.746,0.142-0.802,1.124-0.894,1.72c-0.534,3.468-0.119,6.775,0.66,10.166c0.893,3.882,2.931,3.631,6.414,4.677   c5.07,1.523,12.845,2.479,19.094,2.2c6.317-0.281,11.438-1.791,16.974-4.953c0.569-0.325,1.813-1.595,1.968-2.315   c0.864-4.045,0.747-8.385-1.02-12.079c-0.104-0.218-0.629,0.78-0.658,1.335c-0.142,2.716,0.789,6.024,0.091,8.583   c-0.243,0.89-0.199,1.666-0.984,2.354c-0.292,0.256-0.982,0.784-1.287,1.018c-6.356,4.887-15.386,4.946-23.274,4.333   c-3.259-0.254-7.697-0.728-10.941-1.7c-1.862-0.558-3.33-1.28-3.957-2.218c-0.307-0.458-0.675-1.021-0.908-1.711   c-0.219-0.652-0.437-1.27-0.584-1.733c-0.514-1.61-0.519-2.668-0.565-4.386c-0.018-0.629,0.125-1.081,0.091-1.931   c-0.078-1.939,0.84-1.962,1.487-1.823c0.641,0.138,1.067,0.315,1.99,0.601c0.525,0.162,1.917,0.887,3.842,1.419   c6.106,1.691,14.691,3.195,20.854,2.686c4.979-0.412,9.948-1.752,14.164-4.913c0.555-0.416,0.223-0.599-0.054-0.541   c-0.791,0.165-1.392,0.653-2.007,0.99c-0.441,0.241-1.03,0.637-1.436,0.86c-2.063,1.138-3.85,2.029-8.553,2.742   C240.633,236.802,231.43,235.379,224.954,233.617z"
   id="path85" />
	<g
   id="g87">
		<path
   fill="none"
   stroke="#333333"
   stroke-width="0.8521"
   stroke-linecap="round"
   stroke-linejoin="round"
   d="M216.358,230.472    C216.358,230.472,215.718,231.253,216.358,230.472c0.639-0.781,0.852-2.982,0.284-4.119"
   id="path89" />
	</g>
	<path
   fill="none"
   stroke="#333333"
   stroke-width="0.8521"
   stroke-linecap="round"
   stroke-linejoin="round"
   d="M258.751,231.608   c0,0-1.278-1.278-1.491-2.627c-0.222-1.405,1.065-3.054,1.065-3.054"
   id="path91" />
	<path
   fill="#333333"
   d="M224.954,251.653c-3.387-0.922-5.64-2.143-7.101-2.733c-1.028-0.415-1.794-0.365-1.921-0.341   c-0.746,0.142-0.802,1.124-0.894,1.72c-0.534,3.467-0.119,6.775,0.66,10.165c0.893,3.883,2.931,3.631,6.414,4.677   c5.07,1.523,12.845,2.479,19.094,2.2c6.317-0.281,11.438-1.791,16.974-4.954c0.569-0.325,1.813-1.595,1.968-2.315   c0.864-4.045,0.747-8.385-1.02-12.079c-0.104-0.218-0.629,0.78-0.658,1.336c-0.142,2.715,0.789,6.023,0.091,8.583   c-0.243,0.89-0.199,1.666-0.984,2.354c-0.292,0.256-0.982,0.785-1.287,1.019c-6.356,4.887-15.386,4.945-23.274,4.332   c-3.259-0.253-7.697-0.728-10.941-1.701c-1.862-0.558-3.33-1.28-3.957-2.218c-0.307-0.458-0.675-1.021-0.908-1.71   c-0.219-0.653-0.437-1.271-0.584-1.734c-0.514-1.61-0.519-2.668-0.565-4.386c-0.018-0.628,0.125-1.081,0.091-1.931   c-0.078-1.939,0.84-1.961,1.487-1.824c0.641,0.138,1.067,0.315,1.99,0.601c0.525,0.163,1.917,0.887,3.842,1.419   c6.106,1.691,14.691,3.196,20.854,2.687c4.979-0.412,9.948-1.752,14.164-4.913c0.555-0.417,0.223-0.599-0.054-0.541   c-0.791,0.165-1.392,0.652-2.007,0.989c-0.441,0.241-1.03,0.637-1.436,0.861c-2.063,1.139-3.85,2.029-8.553,2.742   C240.633,254.838,231.43,253.416,224.954,251.653z"
   id="path93" />
	<g
   id="g95">
		<path
   fill="none"
   stroke="#333333"
   stroke-width="0.8521"
   stroke-linecap="round"
   stroke-linejoin="round"
   d="M216.358,248.509    C216.358,248.509,215.718,249.29,216.358,248.509c0.639-0.781,0.852-2.983,0.284-4.119"
   id="path97" />
	</g>
	<path
   fill="none"
   stroke="#333333"
   stroke-width="0.8521"
   stroke-linecap="round"
   stroke-linejoin="round"
   d="M258.751,249.645   c0,0-1.278-1.278-1.491-2.627c-0.222-1.405,1.065-3.054,1.065-3.054"
   id="path99" />
	<path
   fill="#333333"
   d="M214.511,62.957c-0.56,4.062-0.597,8.117-0.156,12.2c0.164,1.522,0.904,3.25,2.348,3.84   c3.38,1.382,6.448-1.181,9.363-3.037c0.582-0.37,1.388-0.375,2.062-0.165c3.244,1.008,8.217,4.582,11.526,2.559   c3.362-2.055,4.679-3.872,8.64-3.09c2.758,0.544,4.646,2.82,7.688,2.185c1.029-0.215,2.048-0.421,2.331-1.449   c0.405-1.472,0.436-2.863,0.707-4.395c0.44-2.488,0.045-4.904-0.765-7.179c-0.823-2.313-2.132-4.44-3.9-6.236   c-0.51-0.519-1.415-1.238-1.694-1.124c-2.021,0.83-3.1,3.236-5.357,4c-1.072,0.363-2.119,0.616-3.261,0.856   c-3.062,0.644-5.924,0.306-8.797-0.387c-4.66,1.851-10.325,0.644-13.836-3.212c-0.754-0.829-1.447,0.345-1.153,1.055   c1.353,3.269,5.098,4.37,8.334,4.871c6.008,0.932,11.927,0.21,17.599-1.842c2.562-0.927,4.423-2.981,7.114-3.623   c0.187-0.044,0.606,0.029,0.801,0.225c1.27,1.279,1.818,2.835,2.854,4.339c2.399,3.486,0.513,7.329,0.376,11.107   c-0.021,0.598-0.41,1.172-0.951,1.527c-1.283,0.84-2.737,1.192-4.147,0.197c-1.934-1.366-3.932-2.524-6.18-2.182   c-1.309,0.199-2.597,0.286-3.815,0.706c-2.774,0.957-3.188,3.524-6.268,2.271c-2.688-1.093-7.142-3.387-10.226-2.326   c-2.061,0.709-3.725,2.134-5.845,2.773c-0.744,0.225-1.528,0.047-2.267,0.302c0.14,0.044,0.178-0.011,0.142-0.142   c-0.077-0.28-1.905-0.798-2.132-1.738c-1.071-4.43-0.49-8.755-0.85-13.174L214.511,62.957z"
   id="path101" />
	<path
   fill="#333333"
   d="M212.523,62.957c0.367-1.05,0.963-2.162,2.019-2.446c1.237-0.333,2.533-0.449,3.265-1.47   c1.565-2.187,3.15-3.744,5.794-4.182c2.709-0.448,5.286-0.573,7.949-0.363c1.327,0.104,2.361,1.044,3.694,1.373   c0.644,0.159,1.16-0.217,1.677-0.388c2.738-0.907,5.285-2.537,8.238-1.783c3.2,0.817,6.216,1.477,9.087,3.343   c0.539,0.351,0.659,1.16,0.366,1.594c-0.373,0.553-1.271,0.187-1.678-0.063c-5.282-3.262-11.41-3.685-16.733-0.22   c-0.278,0.181-0.771,0.172-1.065,0.005c-3.619-2.062-7.789-3.374-11.619-1.526c-1.96,0.945-3.189,2.833-5.086,4.049   c-1.372,0.879-3.123,0.564-4.434,1.579c-0.472,0.364-0.715,0.974-1.332,1.208c-0.125-1.27,0.545-2.563,1.42-3.409"
   id="path103" />
	<path
   fill="#333333"
   d="M244.61,25.055c1.479-3.115,3.237-7.551,7.489-7.92c0.312-0.027,0.735,1.756,1.113,1.755   c4.981-0.013,10.605,1.281,12.498,6.502c-3.729-5.894-12.7-7.388-16.952-1.075c-6.896,10.238-6.986,24.308,5.022,29.479   c-4.655-2.379-8.934-5.599-11.552-10.115c-0.309-0.532-1.557,1.925-1.763,0.414C239.552,37.396,241.846,30.879,244.61,25.055z"
   id="path105" />
	<path
   fill="#333333"
   d="M230.444,29.943c0.358,2.518,1.688,4.779,1.182,7.378c-0.829-4.65-1.401-9.509-4.821-12.777   c-1.355-1.295-0.291,2.421-1.232,1.721c-2.707-2.01-3.218-6.064-7.013-7.123c4.45-0.976,4.107,6.029,8.521,5.113   c-0.929-1.43-1.457-3.059-2.272-4.545C226.847,23.041,229.851,25.776,230.444,29.943z"
   id="path107" />
	<path
   fill="#333333"
   d="M214.156,67.786c-3.957-2.749-4.474-9.302-5.255-13.643c-0.718-3.985-1.276-6.67-2.819-10.414   c-2.435-5.91-4.937-8.329-8.192-12.272c-0.516-0.625-0.914-1.487-1.273-2.301c-1.81-4.096-1.927-9.075-0.965-13.884   c0.877-4.386,2.012-8.251,4.592-12.054c0.556-0.819,1.343-1.854,2.154-1.692c1.287,0.258,0.825,2.177,0.655,3.329   c-0.578,3.922-2.959,7.102-3.6,10.963c-0.422,2.543-1.335,4.083-0.985,6.212c0.1,0.611,1.066,0.299,1.515,0.079   c3.451-1.694,6.292-4.02,9.354-6.488c3.401-2.741,7.366-4.684,11.68-4.143c9.063,1.137,13.165,17.323,14.869,18.813   c1.705,1.492,3.669-4.449,4.474-7.243c1.16-4.026,2.84-7.926,4.93-11.732c0.752-1.37,2.606-1.241,3.993-0.938   c6.13,1.343,10.793,5.05,16.396,7.319c1.5,0.607,3.121,0.853,4.784,1.008c0.748,0.07,1.411,0.536,2.151,0.735   c0.541,0.147,1.086,0.628,1.677,0.182c0.116-0.088,0.656-0.285,0.558-0.385c-0.633-0.633-2.183-0.711-2.414-1.601   c-0.403-1.547,0.114-2.625-0.191-3.945c-0.957-4.134-3.61-7.678-3.086-11.933c0.06-0.488,0.778-1.226,1.226-0.779   c6.36,6.339,6.993,15.545,5.465,24.029c-0.929,5.15-4.847,8.438-7.437,12.854c-0.212,0.361-0.575,2.085-0.712,2.514   c-0.432,1.348-0.639,3.676-0.846,4.96c-0.512,3.175-0.813,3.82-1.158,6.976c-0.233,2.139,0.035,4.215-0.43,6.365   c-0.32,1.484-1.026,2.727-1.944,3.961c-1.206,1.621-2.646,2.761-3.804,4.386c-1.176,1.651-1.771,3.674-1.24,5.727   c0.203,0.786,1.115,1.76,1.505,1.282c1.622-1.988,1.586-4.73,3.177-6.945c1.134-1.578,3.183-2.107,3.679-4.006   c0.485-1.853,0.49-4.048,0.847-5.921c1.124-5.91,0.641-10.607,2.994-17.168c1.032-2.874,2.822-5.331,4.871-7.658   c0.463-0.526,1.247-2.479,1.438-3.178c0.781-2.841,0.789-3.288,1.034-5.684c0.356-3.484,0.465-6.461,0.056-9.924   c-0.229-1.937-0.504-3.88-1.343-5.676c-0.732-1.566-1.303-3.142-2.409-4.537c-0.668-0.843-1.289-1.625-2.014-2.385   c-0.429-0.451-1.113-0.514-1.689-0.823c-0.815-0.437-2.059,0.33-2.17,1.2c-0.449,3.514,0.993,6.908,2.019,10.236   c0.455,1.479,1.128,2.986,0.666,4.497c-0.302,0.985-1.563,1.037-2.436,0.688c-3.71-1.486-6.659-3.78-10.273-5.502   c-1.429-0.682-3.29-0.784-4.79-1.3c-0.802-0.275-1.842-0.751-2.716-0.933c-2.363-0.492-4.951-0.922-6.505,0.788   c-1.585,1.745-2.766,4.969-3.006,6.147c-0.875,4.299-1.456,4.646-2.901,8.785c-0.551,1.576-1.928,3.358-3.159,0.142   c-2.108-5.511-4.149-11.927-9.928-14.266c-3.145-1.273-6.836-1.479-10.1-0.224c-1.584,0.609-3.212,1.235-4.589,2.297   c-0.91,0.702-1.975,1.308-2.913,2.074c-0.988,0.806-2.004,1.423-2.971,2.258c-0.699,0.603-2.141,2.059-2.927,1.765   c-1.106-0.414-0.185-1.908-0.031-2.667c1.039-5.12,3.871-10.247,2.537-14.728c-0.396-1.332-2.465-1.302-3.438-0.158   c-4.395,5.167-6.165,10.816-7.044,18.148c-0.288,2.399-0.253,4.71,0.444,7.086c0.52,1.776,0.675,3.548,1.649,5.134   c2.513,4.094,5.737,7.467,7.593,11.763c0.256,0.592,1.241,2.155,1.507,2.546c0.712,1.043-0.091,0.976,0.572,2.031   c0.657,1.048,0.879,2.185,1.119,3.39c0.683,3.439,0.565,6.448,1.008,10.047c0.186,1.508,0.646,2.916,1.354,4.272   c0.562,1.077,1.286,1.968,2.031,2.945c0.567,0.745,1.9,1.446,2.918,1.398L214.156,67.786z"
   id="path109" />
	<path
   fill="#dddddd"
   d="M166.863,155.484c9.34,0.849,17.043,2.272,21.02,8.521c3.977,6.249,9.374,16.758,11.646,23.576   c2.272,6.817,8.521,16.758,10.794,23.007c2.271,6.249,8.11,32.397,7.953,41.755c-0.158,9.356-0.285,6.249-0.285,6.249   s6.533,9.658,9.089,14.77c2.556,5.113,6.817,14.771,7.102,25.564c0.284,10.793,2.272,10.226,2.272,13.067   c0,2.84-1.705,7.669-1.989,12.781c-0.284,5.112,1.704,7.67,1.136,13.066c-0.568,5.396-4.261,18.179-5.681,24.712   s-3.125,19.031-5.113,23.007c-1.988,3.978-7.101,10.227-7.101,10.227s4.261,13.634,3.692,21.587   c-0.568,7.953-3.124,22.439-4.26,25.279c-1.137,2.841,1.704,12.782,1.704,12.782s1.704,23.576,1.136,32.95   c-0.567,9.373-0.852,21.303-3.408,28.688c-2.556,7.386-3.409,11.931-8.238,17.043c-4.829,5.113-18.747,13.066-25.563,16.19   c-6.817,3.125-19.031,7.385-30.109,9.09c-11.078,1.704-49.14,2.556-58.229,1.136s-17.895-1.42-22.724-0.853   c-4.829,0.568-10.793,2.558-18.747,2.272c-7.953-0.283-18.463-2.556-24.427-1.987c-5.965,0.567-9.658,1.704-13.634,1.136   s-9.374-1.704-11.362-10.226s-2.84-24.712-2.557-35.506c0.284-10.794,3.693-46.867,3.977-52.548   c0.284-5.682,3.125-34.086,4.261-41.187c1.136-7.102,3.977-24.712,4.829-28.973c0.852-4.261,0.852-14.202,3.408-21.02   c2.557-6.816,4.829-13.35,4.829-13.35s-0.853-4.545,0.852-11.361c1.704-6.817,10.793-25.28,11.93-28.121s5.397-21.02,8.237-26.984   c2.84-5.965,6.533-17.895,11.646-26.132c5.113-8.238,17.611-27.553,24.428-36.642s23.007-28.688,30.676-36.642   c7.669-7.953,26.133-24.711,33.518-28.972C150.957,159.177,160.614,154.916,166.863,155.484z"
   id="path111" />
	<g
   id="g113">
		<path
   fill="#dddddd"
   d="M306.329,156.053c15.063,1.004,31.245,7.953,40.334,15.622c9.09,7.669,23.292,18.747,33.518,30.108    c10.226,11.362,24.996,31.245,30.961,40.903s15.054,25.564,19.884,36.358c4.828,10.793,10.793,25.279,14.201,35.505    c3.409,10.226,11.362,42.038,11.362,42.038s3.977,8.521,5.965,17.327s11.646,55.673,13.065,67.603s5.681,80.101,5.681,89.475    c0,9.373-0.567,15.054-3.124,17.61s-8.805,3.692-14.486,3.977c-5.681,0.284-19.03,3.408-25.279,4.261    c-6.25,0.852-15.055,3.125-21.871,4.261c-6.818,1.137-23.008,3.692-29.825,3.692s-29.257,0-40.619-1.421    c-11.361-1.42-23.574-1.42-31.812-5.396c-8.237-3.978-21.02-9.942-28.688-15.623c-7.669-5.682-14.771-14.202-16.474-21.02    c-1.705-6.816-5.966-28.688-5.397-42.606s1.42-36.357,1.42-50.561c0-14.201-1.704-19.599-2.272-25.279s-2.556-14.202-2.272-26.7    c0.284-12.498,0.568-35.221,0.568-35.221s-7.101-5.682-10.226-17.043c-3.125-11.362-3.125-17.895-3.408-29.541    c-0.284-11.646,1.42-17.327,2.841-25.563c1.42-8.238,1.988-17.611,4.828-20.735c2.84-3.125,5.965-7.669,5.965-7.669    s-2.557-13.35-0.284-21.872c2.272-8.521,6.817-23.292,12.214-33.801c5.397-10.509,11.078-19.599,15.623-23.007    C293.262,158.325,302.068,155.769,306.329,156.053z"
   id="path115" />
	</g>
	<path
   fill="#333333"
   d="M464.399,388.826c-0.913-5.025-5.254-20.877-5.254-20.877l-1.988-16.475c0,0,10.793,36.073,16.189,68.455   c3.317,19.898,6.818,42.891,7.386,62.773s2.166,32.027,1.704,51.412c-0.284,11.93-0.771,14.872-5.112,17.043   c-5.681,2.84-8.521,2.272-14.203,2.84c-5.057,0.506-10.293,1.09-15.306,2.975c-3.103,1.165-6.703,0.009-10.095,0.939   c-2.33,0.639-4.876,2.518-7.16,3.202c-2.663,0.8-4.851-0.133-7.601,0.315c-7.684,1.25-14.564,4.109-22.209,5.019   c-7.709,0.916-15.252,0.195-22.984,0.758c-13.144,0.958-25.364-0.613-37.038-2.332c-7.373-1.086-14.357-1.548-21.76-3.633   c-6.829-1.922-13.205-5.803-19.104-9.343c-6.738-4.044-16.827-7.273-24.07-16.221c-4.77-5.893-8.034-13.378-9.971-21.365   c-4.007-16.521-4.227-32.604-3.095-49.078c1.062-15.474,1.176-31.125,0.284-46.867c-0.134-2.365-0.439-12.608-1.083-15.283   c-3.584-14.923-2.349-22.143-2.326-36.98c0.011-6.689,0.877-13.692,1.704-20.736c0,0,0.994,28.505,0.994,37.068   c0,12.498,2.557,16.759,3.964,30.333c0.963,9.295,0.507,18.03,0.439,27.186c-0.143,19.174-2.993,40.004-0.574,60.185   c1.036,8.65,2.743,17.248,6.539,25.029c2.328,4.772,5.038,9.185,8.609,12.364c4.164,3.709,9.114,6.365,14.17,9.121   c7.015,3.824,13.795,7.341,21.038,10.436c4.386,1.874,9.111,1.98,13.885,3.128c6.28,1.511,11.852,0.803,18.087,2.366   c1.76,0.441,3.808,0.832,5.731,0.931c19.081,0.982,25.07,5.299,40.335-5.681c-1.109,2.62-3.847,3.445-5.966,5.112   c4.642,0.319,9.279,0.029,13.915-0.104c2.32-0.067,4.269-1.516,6.562-2.067c3.439-0.828,7.312-0.509,10.734-1.136   c2.999-0.55,5.1-0.858,7.799-1.82c8.249-2.94,16.617-3.654,25.508-5.475c2.775-0.569,5.466-0.616,8.198-1.043   c4.716-0.735,7.503,0.594,11.858-1.045c5.154-1.938,6.805-9.519,6.889-14.293c0.157-9.016,0.254-18.397-0.712-27.821   c-1.744-17.015-1.629-33.766-3.549-50.575l-0.674-11.917c-1.327-10.527-1.894-16.3-4.017-26.911   c-2.138-10.688-4.284-20.583-6.955-30.763"
   id="path117" />
	<path
   fill="#333333"
   d="M306.897,544.058c0,0-20.451,0-20.451-10.794s11.361-19.884,22.439-24.996   c11.077-5.113,31.528-11.362,31.528-11.362s-20.61,8.696-28.404,12.498c-11.646,5.681-20.735,15.055-21.587,19.031   C289.57,532.411,285.026,538.66,306.897,544.058z"
   id="path119" />
	<path
   fill="#333333"
   d="M407.59,516.931c14.405,5.42,31.662,8.145,46.193,13.359c7.637,2.74,15.249,5.792,20.729,12.3   c1.188,1.411,0.275,3.196-1.328,3.828c-3.106,1.224-6.385,0.971-9.637,0.621c2.464,0.224,4.797-0.6,7.035-1.336   c1.338-0.441,1.98-2.417,0.57-3.646c-2.919-2.545-8.6-6.237-34.082-13.264c-7.449-2.055-14.82-2.398-22.334-4.367   c-3.649-0.956-9.013-2.689-12.259-4.654L407.59,516.931z"
   id="path121" />
	<path
   fill="#333333"
   d="M198.312,541.021c-14.853,10.85-31.468,13.946-49.263,17.652c-10.133,2.111-19.793,1.716-29.763,1.716   c-10.936,0-18.389-1.485-27.837-1.981c-7.972-0.419-15.937-0.952-23.858-0.358c-4.688,0.352-6.96,3.05-17.328,2.774   c-6.202-0.164-19.883-2.423-19.883-2.423c-7.812-0.568-12.146,2.84-18.513,0.591c-4.766-1.683-7.051-5.42-7.903-11.101   c-0.175-1.165-0.842-4.777-1.071-6.541c-2.183-16.876-0.776-33.793,0.629-49.979c0.412-4.745,0.405-9.658,1.151-14.491   c2.095-13.566,1.417-27.385,3.64-41.554c1.128-7.189,1.784-14.25,3.319-21.22c1.022-4.639,1.349-9.51,2.613-14.472   c0.315-1.234,1.156-0.425,1.224,0.008c0.875,5.557,1.417,10.487,3.264,16.026c-2.379-9.008-0.426-13.635-2.305-27.691   c-1.091-8.162,2.447-17.33,5.429-24.432l-0.994-6.816c-3.271,9.544-5.681,15.196-8.376,35.246   c-2.994,22.273-6.82,42.582-8.524,68.43c-0.414,6.278-0.406,10.004-1.344,16.017c-1.344,8.624-2.159,19.004-2.287,27.448   c-0.254,16.756-1.423,33.441,2.941,50.229c1.335,5.136,5.531,8.199,10.912,8.389c6.877,0.242,16.195-0.819,16.195-0.819   c5.929,0.179,12.678,1.56,19.457,1.715c6.95,0.16,13.928-0.919,20.081-1.72c11.906-1.551,23.562,0.677,35.45,0.999   c15.765,0.426,29.806,1.26,45.708-1.286c2.108-0.338,6.653-1.847,8.708-2.48c4.309-1.327,10.411-2.443,14.503-4.03   c10.934-4.243,18.682-7.101,28.509-13.507c7.739-5.045,11.411-13.605,14.252-21.951c3.249-9.543,4.573-19.424,4.21-29.461   c-0.046-1.261,0.616-2.856,0.544-4.245c-0.718-13.679-0.65-28.882-3.491-43.651c0.151,0.781-0.852,2.485-1.043,2.96   c-0.533,1.321-0.909,2.791-0.909,2.791s1.608,8.797,1.863,13.034c0.195,3.238,0.881,10.723,0.834,14.044   c-0.07,4.984-0.153,9.307-0.443,15.063c-0.341,6.781-1.011,16.659-2.602,24.321c-1.37,6.597-3.645,11.403-4.41,12.893   C209.043,532.127,207.449,534.346,198.312,541.021z"
   id="path123" />
	<path
   fill="#333333"
   d="M196.826,506.45c-14.482-12.101-20.873-13.806-20.873-13.806s28.12,8.947,31.529,25.564   c2.44,11.896-5.965,15.338-5.965,15.338s5.54-4.402,3.835-13.065C204.353,515.408,199.585,508.757,196.826,506.45z"
   id="path125" />
	<path
   fill="none"
   stroke="#333333"
   stroke-width="1.7043"
   stroke-linecap="round"
   stroke-linejoin="round"
   d="M228.998,277.055   c2.983,0.71,5.61,1.846,10.936,1.917c3.482,0.046,6.391-1.633,8.592-2.485"
   id="path127" />
	<path
   fill="none"
   stroke="#333333"
   stroke-width="2.8404"
   stroke-linecap="round"
   stroke-linejoin="round"
   d="M234.465,298.217   c0,0,2.267-3.4,4.403-4.545c3.977-2.13,5.539-3.195,8.238-1.846"
   id="path129" />
	<g
   id="g131">
		<path
   fill="#999999"
   d="M217.707,267.397c-1.705,6.25-2.556,10.51-7.101,13.634c-4.544,3.125-9.941,9.658-17.611,7.102    c-7.669-2.557-13.066-4.545-16.759-10.794c-3.692-6.25-7.669-10.226-6.817-15.339c0.852-5.112,1.704-10.793,4.829-13.634    s3.692-4.261,4.829-5.112c1.136-0.853-1.136-7.102-4.26-3.977c-4.141,4.141-7.385,6.817-8.521,8.237s-2.556,3.977-2.556,3.977    s-1.136-4.829,0-8.237c1.136-3.409,0-4.261,2.272-7.954c2.272-3.692,2.84-5.112,4.261-6.817c1.42-1.704-1.42-5.396-2.556-3.692    c-2.674,4.01-4.261,5.681-5.113,7.669c-0.853,1.988-2.841,6.249-4.261,2.84c-1.42-3.408-1.136-9.941-0.852-14.77    c0.284-4.829,0.852-9.941,3.408-14.486c2.557-4.545,3.478-6.452,6.817-9.373c2.272-1.988-1.136-3.409-1.136-3.409    s-1.989,0.852-3.977,3.409c-1.989,2.556-3.977,4.828-3.977,4.828s-0.568-7.385-0.284-10.225c0.284-2.841-1.42-10.226-1.705-12.214    c-0.284-1.988-1.704-3.408-2.556-3.124s-0.284,2.84-0.284,2.84s0.284,1.704,0.568,5.113s0.284,8.521,0,10.51    c-0.284,1.988-1.136,6.249-1.136,6.249s-3.409-4.261-4.829-6.249c-1.42-1.989-3.124-4.545-4.26-5.397s-2.273,0.284-0.853,1.988    s3.409,4.545,4.545,7.385s2.557,4.544,3.125,8.805s0.852,5.965,0.284,9.374c-0.568,3.409-0.852,5.113-0.852,7.669l0.568,6.817    c0,0-4.261-4.26-5.397-6.817c-1.136-2.556-3.977-5.112-5.681-6.817c-1.705-1.704-3.692-3.124-4.261-7.953    c-0.568-4.829-0.568-10.793-0.568-10.793l-2.273,0.568c0,0,0.284,2.556,0.284,4.545c0,1.988,0,5.397,0.284,7.385    c0.284,1.989,1.705,6.533-0.852,5.113s-4.829-3.124-6.249-5.397c-1.42-2.272-5.113-6.533-5.113-6.533l-1.136,1.136    c0,0,0.568,2.557,1.988,4.545c1.42,1.988,4.545,5.964,6.533,7.101c1.988,1.136,3.693,1.42,5.396,2.84    c1.705,1.42,3.977,2.272,5.113,4.26c1.136,1.988,1.988,5.682,3.692,7.953c1.704,2.273,3.692,3.977,5.681,6.818    c1.989,2.84,2.84,5.964,4.261,9.941c1.42,3.976,3.125,9.657,4.261,13.065c1.136,3.409,3.409,8.806,3.977,9.942    c0.568,1.136,0.852,2.556-1.42,1.42c-2.272-1.136-6.817-3.692-11.078-4.544c-4.26-0.853-11.078-0.853-14.486-1.137    c-3.408-0.284-7.101-0.284-9.941-3.124c-2.84-2.841-5.965-3.125-7.101-7.102s-1.42-7.953-2.272-9.373    c-0.852-1.421-2.556-3.693-2.556-3.693s-4.261-0.284-3.692,1.136c0.568,1.421,2.556,6.25,2.556,6.25l0.568,2.84    c0,0-1.42-0.568-2.556-1.136c-1.136-0.568-2.841,0-5.113-1.135c-2.272-1.136-3.125-1.421-4.829-3.693    c-1.705-2.272-3.125-3.408-5.113-3.976c-1.989-0.568-3.977-0.852-5.965-1.136c-1.988-0.284-3.692,1.136-1.988,1.704    c1.704,0.568,4.544,1.136,6.816,2.557c2.273,1.42,3.409,1.704,4.829,3.692c1.42,1.988,2.557,4.261,4.544,5.113    c1.989,0.852,3.693,2.271,5.681,2.84c1.988,0.568,2.84,2.272,4.261,3.692c1.42,1.421,2.84,4.261,7.101,5.965    c4.26,1.705,8.521,4.261,15.338,5.113c6.817,0.852,13.066,1.988,17.611,3.977c4.544,1.988,10.793,4.545,13.918,7.385    c3.125,2.841,6.533,5.113,8.237,7.102c1.705,1.988,1.42,4.829-1.42,5.965c-2.841,1.136-7.669,1.42-13.351,0.852    c-5.681-0.568-15.054-2.84-21.871-2.84s-15.054,0.852-19.315,1.988s-14.771,3.692-19.031,2.841    c-4.26-0.853-6.249-1.136-8.521-3.409c-2.272-2.273-4.829-4.545-5.113-7.102s-0.568-4.829-2.84-6.533    c-2.272-1.704-4.545-2.272-6.533-2.84c-1.989-0.568-2.84,1.705-0.852,2.272c1.988,0.567,2.84,0.567,4.544,1.704    c1.705,1.136,2.557,1.705,2.557,3.125c0,1.42-0.284,2.272,0.852,4.261c1.136,1.988,1.42,3.692,3.125,5.113    c1.704,1.42,3.125,2.272,2.272,3.409c-0.852,1.135-1.988,2.556-4.829,1.988c-2.84-0.568-5.113-1.137-7.669-1.705    c-2.556-0.568-5.397-1.705-7.669-1.136c-2.272,0.568-3.409,3.409-0.852,3.409c2.556,0,5.113,0,7.385,0.568    c2.272,0.568,4.261,1.42,6.817,1.988c2.557,0.568,4.545,0.852,6.533,0.852s5.113-0.852,5.113-0.852s0.284,1.704-0.284,3.409    c-0.568,1.703-1.988,3.124-4.545,4.828c-2.556,1.704-6.533,3.693-9.089,5.396c-2.556,1.704-7.385,3.977-9.941,4.545    c-2.556,0.568-10.509,1.42-10.509,1.42s-1.705,2.841,0.568,2.272c2.272-0.567,3.125-0.283,5.681-0.852    c2.557-0.568,5.113-0.853,5.965-1.136c0.853-0.285,4.261,0.567,1.42,3.124c-2.84,2.556-6.249,5.681-8.805,6.533    c-2.557,0.852-6.817,1.988-6.817,1.988s-2.84,2.841,0.284,1.988s6.249-1.988,10.51-3.977c4.261-1.989,5.965-3.978,9.089-6.25    c3.125-2.271,10.793-7.953,13.35-9.657c2.556-1.703,9.942-5.112,14.486-7.101c4.545-1.988,13.066-3.692,18.462-3.977    c5.397-0.284,19.315,1.136,24.144,1.704s14.202,1.137,19.031,0.568c4.829-0.568,9.657-1.137,14.202-1.705    c4.544-0.567,7.385,0,11.93,0c4.544,0,7.668,0.853,6.817,3.978c-0.853,3.124-4.545,12.782-8.521,18.462    c-3.977,5.682-10.51,16.475-16.759,20.452c-6.249,3.976-13.066,9.657-22.439,11.93s-19.883,5.112-27.552,4.545    c-7.669-0.568-16.19,0-20.167,0.567c-3.977,0.568-7.953,0.568-11.362,0.284c-3.408-0.284-11.93-2.84-13.634-3.692    s-6.533,2.272-3.977,3.977c2.557,1.704,4.829,2.841,7.953,3.409c3.125,0.567,5.965,0.567,6.817,1.136    c0.852,0.567,2.84,1.988,0.568,4.26c-2.272,2.273-7.953,6.25-10.794,7.102c-2.84,0.853-9.657,3.692-11.078,5.397    c-1.42,1.704-0.284,6.533,3.693,3.977s9.374-5.682,13.35-7.67c3.977-1.987,7.385-4.545,12.498-5.965s9.374-2.841,12.782-3.124    c3.408-0.284,6.249,0,6.249,0s1.705,0.852,0,1.988c-1.705,1.136-7.102,4.261-10.226,7.385c-3.125,3.125-6.817,7.67-11.362,11.93    c-4.544,4.261-9.657,9.658-14.202,12.499c-4.545,2.84-8.521,6.816-14.486,8.521c-5.965,1.705-15.055,3.408-21.587,3.408    c-6.533,0-8.521,0.285-8.521,0.285s-3.409,3.124,0.852,2.84s7.953,0.284,12.214,0c4.26-0.284,7.385,0,7.385,0    s2.841,1.136,0.284,2.557c-2.556,1.42-6.249,4.261-8.521,6.533c-2.272,2.271-4.829,5.112-4.829,5.112s0.284,5.681,3.977,1.704    s8.237-6.816,11.646-9.373s10.793-5.681,15.054-9.09c4.261-3.408,12.782-8.805,16.191-11.93c3.408-3.125,9.089-7.669,12.213-10.51    c3.125-2.84,9.09-9.373,13.066-11.93s7.669-5.396,13.35-7.386c5.681-1.987,14.486-4.828,19.883-5.681    c5.396-0.852,11.93-3.124,15.338-4.544c3.409-1.421,12.214-6.533,12.214-6.533l-15.907,8.237c0,0-1.136,1.136-3.692,3.977    c-2.557,2.841-7.385,9.089-11.362,12.214c-3.977,3.124-9.657,6.533-15.338,11.646c-5.681,5.113-7.669,7.385-12.782,12.782    c-5.113,5.396-11.362,12.781-17.327,19.883s-9.374,12.782-15.623,17.327c-6.249,4.544-13.918,8.237-16.758,9.657    c-2.841,1.42-8.521,4.545-8.521,4.545c-3.125,1.988-2.272,7.385,1.988,5.396s8.237-4.261,12.214-5.396    c3.977-1.137,6.533-1.42,9.657-2.557c3.125-1.136,6.533-3.408,8.521-4.829c1.988-1.42-3.692,3.409-3.692,3.409    s-0.284,1.42-1.42,3.408c-1.136,1.989-1.989,3.692-5.397,7.102c-3.409,3.408-8.521,6.816-11.362,9.657    c-2.84,2.841-5.964,6.533-8.521,9.941c-2.556,3.409-6.249,9.374-9.089,12.214c-2.84,2.841-8.237,9.089-12.214,10.794    c-3.977,1.704-2.272,6.816,1.988,4.828c4.261-1.987,10.509-5.965,13.634-9.373c3.125-3.408,6.817-8.806,11.078-13.35    c4.26-4.545,8.805-7.67,12.214-9.942c3.409-2.271,4.829-1.42,9.089-6.532c4.26-5.113,7.385-13.918,11.078-18.463    s8.521-13.066,10.793-16.759c2.272-3.693,9.658-15.907,13.918-19.883c4.261-3.978,10.51-9.657,10.51-9.657    s-3.125,7.953-4.545,13.633c-1.42,5.682-3.125,15.055-3.977,21.304s-1.704,7.953-2.841,10.226    c-1.136,2.272-4.544,5.113-6.533,6.817c-1.988,1.704-0.284,5.113,2.272,3.408c2.557-1.704,7.101-5.396,7.101-5.396    s0.284,1.421,0,5.965c-0.284,4.545,1.136,7.669-1.136,11.93c-2.272,4.261-5.113,6.817-5.965,11.078s2.557,3.408,4.26,0.568    c1.705-2.841,6.533-7.102,6.817-10.227c0.284-3.124,0.284-4.828,1.705-8.521c1.42-3.692,0-9.09,1.136-13.919    c1.136-4.828,2.841-13.634,3.977-19.883c1.136-6.249,2.841-13.634,4.829-17.895c1.989-4.261,3.693-8.806,4.261-9.657    c0.568-0.853,1.989-3.409,2.841,0.283s0.568,5.682,1.42,7.953c0.852,2.272,3.977,0.853,3.408-2.84    c-0.568-3.692-1.42-7.102-0.568-10.226c0.852-3.124,3.408-7.669,4.829-9.089c1.42-1.421,3.692-2.273,3.692,0.283    s-0.284,7.102-0.852,11.078c-0.568,3.977-1.136,9.373-1.136,14.485c0,5.113,2.557,10.794,2.557,16.759    c0,5.966,0.284,11.362-0.568,14.771c-0.852,3.409-3.124,8.237-4.544,10.226c-1.42,1.989-1.136,5.965,0.852,3.692    c1.988-2.271,3.409-4.828,3.409-4.828s0.284,3.408-0.284,6.533c-0.568,3.124-1.42,6.533-2.272,9.089    c-0.852,2.557-3.125,7.67-3.125,7.67l3.977,0.567c0,0,3.693-6.249,5.113-11.361c1.42-5.112,0.284-7.953,1.42-13.634    c1.136-5.682,0.852-11.646,1.705-13.635c0.852-1.988,2.556-3.977,4.829-0.568c2.272,3.409,3.408,5.965,4.829,9.374    c1.42,3.408,1.988,7.953,1.988,7.953l2.272-7.953c0,0-0.853-3.409-3.409-7.669c-2.556-4.261-5.965-12.214-7.101-20.452    c-1.136-8.236-2.272-21.019,3.125-34.085c5.396-13.066,14.771-23.291,20.451-30.108c5.682-6.817,14.771-19.031,19.315-26.133    c4.545-7.101,15.906-30.393,17.611-35.505c0.929-2.786,0.77-9.515-0.619-15.326c-1.16-4.853-3.718-11.449-4.494-13.647    c-1.704-4.829-4.261-7.669-6.533-11.077C217.991,265.409,217.707,267.397,217.707,267.397z"
   id="path133" />
	</g>
	<g
   id="g135">
		<path
   fill="#eeeeee"
   stroke="#999999"
   stroke-width="0.5681"
   d="M216.571,266.262c-1.705,6.249-2.556,10.51-7.102,13.634    c-4.544,3.125-9.941,9.658-17.61,7.102c-7.669-2.557-13.066-4.545-16.759-10.794c-3.692-6.249-7.669-10.226-6.817-15.338    s1.704-10.793,4.829-13.634s3.692-4.261,4.829-5.112c1.136-0.853-1.136-7.102-4.261-3.977c-4.14,4.141-7.385,6.817-8.521,8.237    s-2.556,3.977-2.556,3.977s-1.136-4.829,0-8.237c1.136-3.409,0-4.261,2.272-7.953c2.272-3.693,2.841-5.113,4.261-6.818    c1.42-1.704-1.42-5.396-2.556-3.692c-2.674,4.011-4.261,5.681-5.113,7.669c-0.853,1.988-2.84,6.249-4.261,2.841    c-1.42-3.409-1.136-9.942-0.853-14.771c0.284-4.829,0.853-9.941,3.409-14.486c2.557-4.545,3.478-6.452,6.817-9.374    c2.272-1.989-1.136-3.409-1.136-3.409s-1.988,0.852-3.977,3.409c-1.989,2.556-3.977,4.829-3.977,4.829s-0.568-7.385-0.284-10.226    s-1.42-10.226-1.705-12.214s-1.704-3.409-2.556-3.125c-0.852,0.284-0.284,2.84-0.284,2.84s0.284,1.704,0.568,5.113    s0.284,8.521,0,10.51s-1.136,6.249-1.136,6.249s-3.409-4.261-4.829-6.249s-3.124-4.545-4.26-5.397    c-1.137-0.852-2.272,0.284-0.853,1.988c1.42,1.705,3.409,4.545,4.545,7.385s2.557,4.544,3.125,8.805    c0.568,4.261,0.852,5.965,0.284,9.374s-0.852,5.113-0.852,7.669l0.568,6.817c0,0-4.261-4.261-5.397-6.817    s-3.977-5.113-5.681-6.817c-1.705-1.704-3.692-3.124-4.261-7.953c-0.568-4.829-0.568-10.794-0.568-10.794l-2.272,0.568    c0,0,0.284,2.557,0.284,4.545s0,5.396,0.284,7.385c0.284,1.988,1.704,6.533-0.853,5.112c-2.557-1.42-4.829-3.125-6.249-5.396    c-1.42-2.272-5.113-6.533-5.113-6.533l-1.136,1.136c0,0,0.567,2.556,1.988,4.545c1.42,1.988,4.545,5.964,6.533,7.101    c1.988,1.137,3.692,1.42,5.396,2.841c1.705,1.42,3.977,2.272,5.113,4.261c1.137,1.988,1.989,5.681,3.693,7.953    c1.704,2.273,3.693,3.977,5.681,6.818c1.989,2.84,2.841,5.965,4.261,9.941c1.42,3.977,3.125,9.657,4.261,13.066    c1.136,3.408,3.408,8.805,3.977,9.941s0.852,2.556-1.42,1.42c-2.272-1.136-6.817-3.692-11.078-4.544    c-4.26-0.853-11.077-0.853-14.486-1.136c-3.408-0.284-7.101-0.284-9.941-3.124c-2.841-2.841-5.965-3.125-7.102-7.102    c-1.136-3.976-1.42-7.953-2.272-9.373c-0.853-1.421-2.557-3.692-2.557-3.692s-4.261-0.285-3.692,1.135    c0.568,1.421,2.556,6.25,2.556,6.25l0.568,2.84c0,0-1.42-0.568-2.556-1.135c-1.136-0.568-2.84,0-5.113-1.136    c-2.272-1.136-3.125-1.421-4.829-3.693c-1.704-2.272-3.125-3.409-5.113-3.977c-1.988-0.568-3.977-0.852-5.964-1.136    c-1.989-0.284-3.693,1.136-1.989,1.704c1.705,0.568,4.545,1.136,6.817,2.556c2.272,1.421,3.409,1.705,4.829,3.693    c1.42,1.989,2.556,4.26,4.544,5.113c1.989,0.852,3.693,2.271,5.681,2.84c1.988,0.568,2.841,2.272,4.261,3.692    c1.42,1.421,2.84,4.261,7.101,5.965s8.521,4.26,15.338,5.113c6.817,0.852,13.066,1.988,17.611,3.977    c4.544,1.989,10.793,4.545,13.918,7.385c3.125,2.841,6.533,5.113,8.237,7.102c1.705,1.988,1.42,4.829-1.42,5.965    c-2.841,1.136-7.669,1.42-13.35,0.852c-5.681-0.568-15.055-2.84-21.872-2.84s-15.054,0.852-19.315,1.988    s-14.771,3.692-19.031,2.841c-4.26-0.853-6.249-1.136-8.521-3.409c-2.272-2.273-4.829-4.544-5.113-7.102    c-0.284-2.556-0.568-4.829-2.84-6.532c-2.272-1.705-4.545-2.273-6.533-2.841c-1.988-0.568-2.84,1.704-0.853,2.272    c1.989,0.568,2.841,0.568,4.545,1.704c1.705,1.136,2.557,1.705,2.557,3.125c0,1.42-0.284,2.272,0.852,4.261    c1.136,1.988,1.42,3.692,3.125,5.113c1.705,1.42,3.125,2.272,2.272,3.409c-0.852,1.136-1.988,2.556-4.828,1.988    c-2.841-0.568-5.113-1.136-7.669-1.704c-2.556-0.568-5.397-1.705-7.669-1.136c-2.272,0.568-3.408,3.409-0.852,3.409    c2.557,0,5.113,0,7.385,0.568c2.272,0.568,4.261,1.42,6.817,1.988c2.557,0.568,4.545,0.853,6.533,0.853s5.113-0.853,5.113-0.853    s0.284,1.705-0.284,3.409s-1.988,3.125-4.545,4.829c-2.556,1.704-6.533,3.692-9.089,5.396c-2.556,1.704-7.385,3.977-9.941,4.545    c-2.556,0.567-10.509,1.42-10.509,1.42s-1.705,2.841,0.568,2.272s3.125-0.284,5.681-0.852c2.556-0.568,5.112-0.854,5.964-1.137    c0.853-0.284,4.261,0.568,1.42,3.124c-2.84,2.557-6.249,5.681-8.805,6.533s-6.817,1.988-6.817,1.988s-2.84,2.841,0.284,1.988    c3.125-0.852,6.249-1.988,10.51-3.977c4.261-1.987,5.965-3.977,9.089-6.248c3.125-2.272,10.794-7.954,13.35-9.658    s9.941-5.113,14.486-7.101c4.545-1.988,13.066-3.693,18.463-3.978c5.397-0.284,19.315,1.137,24.144,1.704    c4.829,0.568,14.202,1.137,19.031,0.568c4.829-0.568,9.657-1.136,14.202-1.704s7.385,0,11.93,0c4.544,0,7.668,0.853,6.817,3.977    c-0.853,3.125-4.545,12.782-8.521,18.463c-3.977,5.682-10.51,16.475-16.759,20.451c-6.249,3.978-13.066,9.657-22.439,11.931    c-9.373,2.271-19.883,5.112-27.552,4.544s-16.19,0-20.167,0.568s-7.953,0.568-11.362,0.284s-11.93-2.841-13.634-3.693    c-1.704-0.852-6.533,2.272-3.977,3.978c2.557,1.704,4.829,2.84,7.953,3.408s5.965,0.568,6.817,1.137    c0.853,0.567,2.841,1.988,0.568,4.261c-2.272,2.271-7.953,6.248-10.794,7.101c-2.84,0.853-9.657,3.692-11.078,5.396    c-1.42,1.704-0.284,6.533,3.693,3.977c3.977-2.556,9.374-5.681,13.35-7.669s7.385-4.545,12.498-5.965s9.374-2.84,12.782-3.125    c3.409-0.283,6.249,0,6.249,0s1.704,0.853,0,1.988c-1.705,1.137-7.101,4.261-10.226,7.386s-6.817,7.669-11.362,11.93    c-4.544,4.261-9.658,9.657-14.202,12.498c-4.545,2.841-8.521,6.817-14.486,8.521s-15.054,3.408-21.587,3.408    c-6.533,0-8.521,0.284-8.521,0.284s-3.408,3.124,0.853,2.841c4.261-0.284,7.953,0.283,12.214,0c4.26-0.284,7.385,0,7.385,0    s2.841,1.136,0.284,2.556c-2.556,1.42-6.249,4.261-8.521,6.533c-2.272,2.272-4.829,5.113-4.829,5.113s0.284,5.681,3.977,1.704    c3.693-3.978,8.238-6.817,11.646-9.374c3.409-2.557,10.793-5.681,15.055-9.09c4.26-3.407,12.782-8.805,16.19-11.929    c3.408-3.125,9.089-7.67,12.213-10.511c3.125-2.84,9.09-9.373,13.066-11.929c3.977-2.557,7.669-5.397,13.35-7.386    s14.486-4.828,19.883-5.681c5.397-0.852,11.93-3.125,15.339-4.545c3.408-1.42,12.214-6.533,12.214-6.533l-15.907,8.238    c0,0-1.136,1.136-3.693,3.976c-2.556,2.841-7.385,9.09-11.361,12.214c-3.977,3.125-9.658,6.533-15.338,11.646    c-5.681,5.113-7.669,7.386-12.782,12.783c-5.113,5.396-11.362,12.782-17.327,19.883s-9.374,12.781-15.623,17.326    c-6.249,4.545-13.918,8.237-16.758,9.658c-2.84,1.42-8.521,4.544-8.521,4.544c-3.125,1.989-2.272,7.386,1.988,5.397    s8.237-4.261,12.214-5.397c3.977-1.136,6.533-1.42,9.658-2.556c3.125-1.137,6.533-3.409,8.521-4.829    c1.988-1.42-3.693,3.409-3.693,3.409s-0.284,1.42-1.42,3.407c-1.137,1.989-1.989,3.693-5.397,7.102    c-3.409,3.409-8.521,6.817-11.362,9.658c-2.841,2.84-5.965,6.533-8.521,9.94c-2.556,3.409-6.249,9.374-9.089,12.215    c-2.84,2.84-8.237,9.09-12.214,10.793c-3.977,1.705-2.272,6.817,1.988,4.829s10.509-5.965,13.634-9.373    c3.125-3.409,6.817-8.806,11.078-13.351c4.26-4.545,8.805-7.669,12.214-9.941s4.829-1.42,9.089-6.533    c4.261-5.112,7.385-13.918,11.078-18.463c3.692-4.544,8.521-13.065,10.794-16.758c2.272-3.693,9.658-15.907,13.918-19.884    c4.261-3.977,10.51-9.657,10.51-9.657s-3.125,7.953-4.545,13.634c-1.42,5.682-3.125,15.055-3.977,21.303    c-0.852,6.25-1.705,7.954-2.84,10.227c-1.136,2.272-4.545,5.112-6.533,6.817c-1.988,1.703-0.284,5.112,2.272,3.408    c2.556-1.705,7.101-5.397,7.101-5.397s0.284,1.421,0,5.965c-0.284,4.546,1.136,7.67-1.136,11.931    c-2.272,4.261-5.112,6.816-5.965,11.077c-0.852,4.261,2.556,3.409,4.261,0.568c1.704-2.841,6.533-7.102,6.817-10.226    s0.284-4.829,1.705-8.521s0-9.089,1.136-13.918c1.136-4.829,2.84-13.634,3.977-19.884c1.136-6.248,2.84-13.634,4.829-17.894    c1.988-4.261,3.692-8.807,4.261-9.658c0.568-0.852,1.988-3.408,2.84,0.284c0.852,3.693,0.568,5.681,1.42,7.953    c0.852,2.272,3.977,0.853,3.408-2.84c-0.568-3.692-1.42-7.102-0.568-10.226c0.852-3.125,3.408-7.67,4.829-9.09    s3.692-2.272,3.692,0.283c0,2.558-0.284,7.102-0.852,11.079c-0.568,3.976-1.136,9.373-1.136,14.486    c0,5.112,2.556,10.793,2.556,16.758s0.284,11.362-0.568,14.771c-0.852,3.408-3.124,8.237-4.544,10.226    c-1.42,1.988-1.136,5.965,0.852,3.692s3.409-4.828,3.409-4.828s0.284,3.408-0.284,6.532c-0.568,3.125-1.42,6.533-2.272,9.09    c-0.852,2.557-3.124,7.669-3.124,7.669l3.977,0.568c0,0,3.692-6.249,5.113-11.362c1.42-5.112,0.284-7.953,1.42-13.634    s0.852-11.646,1.704-13.634c0.853-1.988,2.557-3.977,4.829-0.568c2.272,3.408,3.408,5.965,4.829,9.374    c1.42,3.407,1.988,7.953,1.988,7.953l2.272-7.953c0,0-0.853-3.409-3.409-7.67s-5.965-12.214-7.101-20.451    s-2.272-21.019,3.125-34.085c5.397-13.066,14.771-23.292,20.451-30.108c5.682-6.817,14.771-19.031,19.315-26.133    c4.545-7.101,15.907-30.393,17.611-35.505c0.929-2.786,0.77-9.515-0.619-15.326c-1.16-4.853-3.718-11.449-4.494-13.647    c-1.704-4.829-4.261-7.669-6.533-11.078C216.854,264.273,216.571,266.262,216.571,266.262z"
   id="path137" />
	</g>
	<path
   fill="#333333"
   d="M219.695,259.586c-0.625-8.426-0.112-19.766-1.832-28.351c-1.658-8.283-3.66-15.868-6.528-23.53   c-2.273-6.073-6.672-11.101-8.88-17.224c-1.182-3.278-1.973-6.64-3.354-9.859c-0.941-2.196-1.553-4.897-3.025-7.271   c-3.191-5.145-5.152-8.264-9.751-12.167c-2.904-2.464-7.553-5.179-10.955-6.075c-5.409-1.425-11.114-1.408-16.797-0.197   c-10.528,2.245-17.541,9.135-26.002,15.629c-4.768,3.659-9.746,8.377-13.931,12.282c-5.135,4.791-10.076,9.57-14.786,15.125   c-5.4,6.368-10.701,10.937-15.53,17.328c-10.087,13.35-19.449,25.646-28.794,40.306c-1.799,2.822-3.851,5.762-5.217,8.736   c-6.879,14.978-13.867,29.734-18.252,45.544c-0.924,3.332-0.567,6.667-2.222,9.685c-6.401,11.675-11.929,23.476-12.952,36.627   c-0.511,6.574,2.885,12.472,7.789,16.746c9.986,8.707,21.254,15.42,34.198,18.228c9.459,2.054,14.813,1.446,24.173,2.65   c3.647,0.469,10.828,1.756,14.015,2.832c10.791,3.647,20.983,7.368,32.188,10.196c5.596,1.412,11.019,1.109,16.571,1.182   c7.2,0.093,14.238-0.331,21.445-1.002c10.512-0.979,20.945-0.124,31.293-2.175c3.362-0.666,6.478-2.207,9.751-3.506   c3.523-1.399,6.08-3.649,8.591-6.179c6.772-6.825,6.836-16.51,9.162-25.351c1.002-3.812,1.009-8.169,2.427-12.159   c2.958-8.319,5.283-17.089,4.39-25.903c-0.403-3.979-1.631-8.575,0.112-12.852c0.958-2.354,0.781-5.011,0.276-7.563   c-0.43-2.169-0.849-4.177-1.28-6.333c-1.484-7.437,0.993-15.221-2.801-21.823c-0.492-0.855-0.382-2.449-1.017-3.602   c-7.366-13.365-15.442-24.766-24.637-37.366c-5.356-7.339-8.791-15.567-9.568-24.646c0.377,4.409,1.186,8.322,2.039,12.429   c1.417,6.813,4.375,12.505,8.186,18.348c4.015,6.155,8.456,10.911,12.595,17.069c4.534,6.746,6.959,13.712,10.421,20.745   c2.571,5.222,1.372,11.25,2.264,16.907c0.58,3.681,1.508,7.078,1.74,10.264c0.445,6.111-5.171,11.595-2.749,18.093   c0.401,1.077,1.241,2.064,1.438,3.196c0.604,3.463,0.35,6.844-0.607,10.15c-3.051,10.546-5.095,20.858-7.776,31.296   c-2.547,9.917-7.452,19.373-16.837,23.688c-7.547,3.471-15.937,4.626-24.062,4.576c-11.563-0.07-23.12,0.566-34.656,1.276   c-4.969,0.307-9.81-0.294-14.996-1.298c-11.996-2.32-22.01-7.731-33.904-10.441c-13.76-3.135-26.427-4.804-40.006-6.439   c-5.636-0.679-11.075-4.237-16.884-6.854c-5.648-2.543-11.378-5.928-15.384-10.022c-3.44-3.517-5.366-8.059-5.771-13.539   c-0.661-8.936,4.606-16.757,7.647-24.974c0.906-2.448,1.919-3.906,2.771-6.365c0.928-2.68,2.996-5.251,3.737-10.401   c0.734-5.104,2.935-11.07,4.552-15.807c0.855-2.506,1.904-4.958,2.857-7.477c1.988-5.255,4.887-9.273,7.059-16.444   c1.163-3.839,2.892-6.935,4.871-10.398c2.272-3.977,4.797-8.387,7.129-12.003c3.84-5.953,7.51-12.32,12.304-18.124   c6.18-7.481,12.463-15.811,18.486-23.273c2.149-2.663,4.921-4.809,7.083-7.649c8.716-11.452,18.623-20.613,28.989-29.42   c5.817-4.942,12.489-9.74,19.317-13.49c10.083-5.539,20.357-6.498,29.465-1.429c14.561,8.104,14.304,19.657,19.091,30.938   c3.137,7.393,7.375,14.232,10.499,21.569c2.29,5.377,3.718,11.153,4.997,16.951c2.13,9.658,1.146,17.631,2.414,24.712   L219.695,259.586z"
   id="path139" />
	<path
   fill="none"
   stroke="#333333"
   stroke-width="1.7043"
   d="M16.319,399.763c0,0,4.769,36.951,12.214,53.969   c7.953,18.179,23.291,38.346,26.7,42.321c3.408,3.978,6.533,10.226,9.941,13.919"
   id="path141" />
	<path
   fill="#333333"
   d="M221.542,394.507c-0.197,2.744,0.8,9.019,1.14,11.682c2.227,17.476-2.357,33.519-9.355,49.271   c-4.36,9.816-13.063,18.097-21.479,24.923c-3.875,3.144-8.526,6.358-12.969,8.364c-9.667,4.361-16.707,9.01-23.519,11.141   c-6.834,2.139-11.86,4.8-18.808,7.212c-7.662,2.659-14.88,5.694-22.683,8.062c-12.562,3.814-24.787,5.184-37.697,8.275   c-4.852,1.161-10.164,3.085-14.832,4.854c-4.119,1.562-6.818,2.498-11.021,3.623c-10.366,2.774-19.602,6.768-28.954,12.132   c-2.311,1.325-4.744,2.376-6.241,4.75c-0.924,1.466-0.084,2.906,1.371,3.562c4.127,1.863,8.618,1.896,13.032,2.35   c-5.399-0.335-11.187,1.508-16.033-1.399c-2.705-1.623-1.663-5.866,1.011-7.643c5.042-3.35,9.593-6.499,15.096-8.348   c11.793-3.961,22.372-9.528,34.519-12.932c3.129-0.878,7.596-2.6,5.836-6.521c-1.938-4.315-6.439-7.062-7.48-12.015   c3.357,3.018,5.695,6.848,9.192,9.82c3.976,3.379,9.151,3.2,14.056,2.183c5.444-1.13,10.33-2.796,15.666-3.481   c2.092-0.269,3.784-0.656,5.664-0.959c2.575-0.414,4.657-1.379,7.155-2.023c5.128-1.322,10.176-2.446,14.969-4.516   c8.844-3.816,17.888-6.433,26.658-10.317c7.675-3.399,14.841-7.095,22.388-11.115c9.942-5.297,14.935-10.089,21.73-16.517   c5.255-4.971,10.652-12.071,13.239-19.342c2.54-7.133,5.026-13.611,6.201-21.017c0.912-5.746-0.1-16.509-0.125-16.734   c-0.71-6.107-1.77-9.306-4.26-11.646L221.542,394.507z"
   id="path143" />
	<path
   fill="#999999"
   d="M252.076,295.518c0,0-0.852-8.237,0.853-15.623c1.705-7.385,4.271-11.349,5.965-12.782   c3.693-3.125,1.988-6.959,1.988-6.959s4.261,5.823,6.817,9.8c2.556,3.976,14.771,18.747,19.883,22.723s19.884,15.338,27.552,16.475   c7.67,1.136,14.203,2.556,17.043-0.284c2.841-2.84,5.397-5.113,4.545-7.953c-0.852-2.84-3.124-4.829-7.669-4.261   c-4.545,0.568-6.817,0.284-6.817,0.284c-2.556,0.284-2.272-2.557,0-3.125c2.272-0.568,5.681-0.285,8.521-1.705   s4.261-1.42,5.681-4.544c1.421-3.125,2.557-8.806,1.989-13.634c-0.568-4.829,0-7.953-3.125-13.918   c-3.125-5.965-7.102-8.521-10.794-10.793c-3.692-2.272-9.657-3.125-13.918-1.988s-6.249,1.988-6.249,1.988   c-2.84,0.853-4.828-2.272-1.988-3.125c2.841-0.852,5.682-1.988,7.385-2.556c1.704-0.568,5.682-1.136,4.829-3.125   s-3.125-3.409-5.112-5.113c-1.988-1.704-6.533-5.964-7.386-8.521s0-11.362,2.841-7.101c2.84,4.261,5.112,9.941,8.805,13.35   c3.693,3.408,9.658,7.953,11.931,9.941c2.271,1.988,5.681,4.545,7.385,5.397s3.408,0.852,1.988-1.988s-3.692-11.078-4.829-15.054   c-1.136-3.977-2.84-10.794-3.124-15.623c-0.284-4.829-0.852-10.793-0.568-13.35c0.284-2.556,3.978-3.409,4.545,0.284   c0.568,3.692,0.568,11.078,1.988,15.906c1.42,4.829,4.829,13.066,6.817,18.747c1.987,5.681,3.977,12.498,5.396,17.895   s2.557,9.374,4.261,12.782c1.704,3.409,3.409,4.545,6.533,3.692c3.124-0.852,3.977-1.42,6.533-2.557   c2.557-1.136,5.964-1.988,7.385-2.84c1.42-0.853,5.112,4.828,1.137,6.533c-3.978,1.704-8.238,3.125-12.215,4.829   c-3.977,1.705-5.964,2.556-7.101,5.965c-1.137,3.409-3.124,7.953-3.124,13.066s0.567,8.805,2.271,11.93   c1.704,3.124,9.374,5.965,15.339,8.521s15.338,7.953,19.883,12.781c4.545,4.829,19.6,21.02,22.44,24.997   c2.84,3.976,8.521,8.236,12.214,12.214c3.692,3.976,5.965,6.816,8.805,10.226c2.841,3.408,5.396,6.249,9.089,7.953   s6.533,3.124,9.09,4.544c2.557,1.421,3.977,7.102,0.568,5.397c-3.409-1.705-7.102-3.692-8.806-3.977s-3.977-1.704-2.557,2.271   c1.421,3.978,3.124,9.09,3.977,13.919c0.853,4.828,1.705,10.794,3.125,13.634s2.841,6.533,4.545,8.237s0.568,4.829-1.704,3.125   s-5.113-2.841-5.113-2.841s-2.557-0.853-2.84,0.852c-0.285,1.705-1.137,4.829-1.705,7.102c-0.567,2.272-3.692,3.409-3.124-0.852   s2.84-10.51,1.988-17.896c-0.852-7.385-2.272-17.327-5.681-23.575c-3.409-6.249-9.09-14.771-12.498-19.031   c-3.409-4.261-8.806-9.373-11.078-12.214s-4.545-3.408-3.692,1.42c0.852,4.829,1.42,10.227,1.988,14.202   c0.568,3.978,0.568,5.113,0.852,8.521c0.284,3.409-6.248,6.249-6.816,1.137c-0.568-5.113-2.272-14.771-4.545-21.588   s-4.545-15.054-11.078-22.155s-13.065-10.794-21.303-14.486s-15.339-5.965-18.179-5.965c-2.841,0-5.113,0.567-5.966,1.988   c-0.852,1.42-3.408,1.42,1.137,8.521c4.545,7.101,12.214,24.712,16.19,31.812c3.978,7.102,9.09,14.203,13.918,19.315   c4.829,5.113,11.362,12.782,16.191,16.475c4.828,3.692,8.236,7.102,12.214,9.089c3.976,1.989,11.077,5.397,15.054,5.966   c3.977,0.567,5.113,0.567,6.249,0.853c1.137,0.283,2.84,4.26-0.853,4.544c-3.692,0.283-7.953,0.568-9.941,0.283   c-1.988-0.283-3.692-0.283-3.692-0.283s2.272,5.112,6.249,9.09c3.977,3.977,9.374,8.237,13.635,10.226   c4.261,1.987,9.089,3.976,12.214,5.112c3.124,1.136,2.272,8.521-2.273,7.102c-4.544-1.42-10.226-2.841-10.226-2.841   s0,3.977,2.558,9.941c2.556,5.966,9.373,19.031,14.201,22.155c4.829,3.125,9.658,5.113,11.362,5.682s1.704,4.261-1.136,3.124   c-2.841-1.136-6.533-2.841-7.67-2.841s-3.977-1.136-2.557,3.409c1.42,4.544,2.841,8.521,3.125,11.361   c0.283,2.841,0.283,3.977,0.283,6.817c0,2.84-3.976,3.408-4.544-0.284s-1.137-9.373-2.841-14.202   c-1.703-4.829-5.396-11.078-7.101-13.35c-1.704-2.272-3.977-5.397-5.682-1.989c-1.704,3.409-2.556,6.817-3.124,9.09   s-4.261,2.272-3.124-1.42c1.136-3.693,3.124-12.214,2.556-17.327c-0.568-5.112-3.124-11.361-5.681-17.61   c-2.556-6.249-5.965-10.794-11.361-17.327c-5.397-6.533-9.941-10.509-13.066-13.918s-5.112-5.112-4.545-1.704   c0.568,3.408,1.42,8.521,2.272,12.498c0.853,3.976-3.124,4.261-4.261,0.852c-1.136-3.408-2.557-7.953-4.26-10.509   c-1.705-2.557-3.409-4.829-5.113-1.705c-1.705,3.125-3.977,6.817-4.545,9.658c-0.568,2.84-6.816,5.396-4.828,0.852   c1.987-4.545,3.692-7.669,5.396-12.498c1.704-4.828,2.84-10.793,0.568-14.202c-2.272-3.408-7.953-5.965-10.794-8.237   s-8.237-6.533-8.237-6.533s2.556,4.261,3.124,7.953c0.568,3.693,1.704,6.533,1.704,11.078s-0.283,13.066-2.272,19.314   c-1.988,6.25-7.385,17.327-9.089,21.304s-7.669,15.623-9.374,20.168c-1.704,4.544-1.987,5.681-1.987,5.681s-6.25,1.987-4.261-3.692   c1.988-5.681,3.692-10.794,4.828-15.055c1.137-4.261,2.273-9.373-1.136-6.533c-3.409,2.841-6.249,5.681-8.521,7.669   s-6.249,0.284-3.124-2.841c3.124-3.124,9.373-7.385,12.497-11.077c3.125-3.692,6.25-8.521,7.385-12.782   c1.137-4.261,3.693-13.066,2.841-19.883c-0.852-6.817-7.668-25.849-10.794-33.233c-3.124-7.385-10.226-22.155-15.906-29.824   c-5.681-7.67-9.657-13.066-17.61-18.18c-7.953-5.112-15.623-9.657-22.439-15.338C271.107,311.141,252.076,295.518,252.076,295.518z   "
   id="path145" />
	<path
   fill="#eeeeee"
   stroke="#999999"
   stroke-width="0.5681"
   d="M250.94,293.814c0,0-1.136-5.965,0-13.492   c1.131-7.495,2.18-8.634,3.408-12.782c1.137-3.834,2.272-14.628,2.272-14.628s7.386,11.362,9.941,15.339   c2.558,3.976,14.771,18.747,19.884,22.723c5.113,3.977,19.883,15.339,27.553,16.475c7.668,1.136,14.201,2.557,17.042-0.284   c2.84-2.841,5.396-5.113,4.545-7.953c-0.853-2.841-3.125-4.829-7.67-4.261c-4.544,0.568-6.816,0.284-6.816,0.284   c-2.557,0.284-2.272-2.556,0-3.125c2.272-0.568,5.681-0.284,8.521-1.704c2.84-1.42,4.26-1.42,5.681-4.544   c1.42-3.125,2.557-8.806,1.988-13.635c-0.568-4.829,0-7.953-3.124-13.918c-3.125-5.964-7.102-8.521-10.794-10.793   c-3.692-2.272-9.658-3.125-13.918-1.989c-4.261,1.136-6.249,1.989-6.249,1.989c-2.841,0.852-4.829-2.272-1.989-3.125   c2.841-0.852,5.682-1.988,7.386-2.556c1.704-0.568,5.681-1.136,4.829-3.125c-0.853-1.988-3.125-3.409-5.113-5.112   c-1.988-1.705-6.533-5.965-7.385-8.521c-0.853-2.557,0-11.362,2.841-7.101c2.84,4.261,5.112,9.941,8.805,13.35   c3.692,3.408,9.657,7.953,11.93,9.941c2.272,1.989,5.681,4.545,7.386,5.396c1.704,0.853,3.408,0.853,1.987-1.988   c-1.42-2.841-3.692-11.078-4.828-15.055c-1.137-3.976-2.84-10.793-3.125-15.622c-0.283-4.829-0.852-10.794-0.567-13.35   c0.284-2.557,3.977-3.409,4.545,0.284c0.568,3.692,0.568,11.077,1.988,15.906c1.42,4.829,4.828,13.066,6.816,18.747   c1.989,5.681,3.977,12.498,5.397,17.894c1.42,5.397,2.556,9.374,4.26,12.783c1.705,3.408,3.409,4.544,6.533,3.693   c3.125-0.853,3.977-1.421,6.533-2.557c2.557-1.136,5.966-1.988,7.386-2.84c1.42-0.853,5.112,4.829,1.136,6.532   c-3.977,1.705-8.237,3.125-12.214,4.829s-5.965,2.557-7.102,5.965c-1.136,3.409-3.124,7.953-3.124,13.066   c0,5.112,0.568,8.805,2.272,11.929c1.704,3.125,9.373,5.965,15.339,8.522c5.965,2.557,15.338,7.953,19.883,12.782   c4.544,4.829,19.599,21.019,22.439,24.995c2.84,3.977,8.521,8.237,12.214,12.214c3.692,3.978,5.965,6.817,8.805,10.227   c2.841,3.407,5.397,6.248,9.09,7.953c3.692,1.704,6.533,3.124,9.089,4.544c2.558,1.421,3.978,7.102,0.568,5.396   c-3.408-1.703-7.102-3.692-8.805-3.976c-1.704-0.284-3.978-1.705-2.557,2.272c1.42,3.977,3.125,9.089,3.977,13.917   c0.852,4.829,1.704,10.794,3.124,13.635s2.841,6.533,4.545,8.237c1.705,1.704,0.568,4.829-1.704,3.125   c-2.272-1.705-5.113-2.841-5.113-2.841s-2.556-0.852-2.84,0.852c-0.284,1.704-1.136,4.829-1.704,7.102s-3.692,3.409-3.125-0.852   c0.568-4.261,2.841-10.511,1.988-17.896c-0.852-7.385-2.272-17.326-5.681-23.576c-3.408-6.248-9.089-14.77-12.498-19.03   s-8.805-9.374-11.077-12.214c-2.272-2.841-4.545-3.409-3.692,1.42c0.852,4.829,1.42,10.226,1.987,14.203   c0.568,3.976,0.568,5.112,0.853,8.521s-6.249,6.249-6.817,1.136c-0.568-5.112-2.272-14.77-4.544-21.587   c-2.272-6.816-4.545-15.055-11.078-22.155s-13.066-10.793-21.304-14.486c-8.236-3.693-15.338-5.965-18.179-5.965   c-2.84,0-5.112,0.568-5.964,1.988c-0.854,1.42-3.409,1.42,1.135,8.521c4.545,7.102,12.214,24.712,16.191,31.812   c3.977,7.102,9.089,14.202,13.918,19.315s11.362,12.781,16.19,16.474c4.829,3.693,8.237,7.102,12.214,9.09   c3.977,1.989,11.078,5.396,15.055,5.965s5.112,0.568,6.249,0.853c1.136,0.284,2.841,4.261-0.853,4.545s-7.953,0.567-9.941,0.284   c-1.988-0.284-3.692-0.284-3.692-0.284s2.272,5.113,6.248,9.089c3.978,3.978,9.374,8.238,13.635,10.226   c4.261,1.988,9.09,3.978,12.214,5.113s2.272,8.521-2.272,7.101c-4.544-1.42-10.226-2.841-10.226-2.841s0,3.978,2.557,9.942   s9.373,19.03,14.202,22.155s9.657,5.113,11.362,5.682c1.704,0.567,1.704,4.26-1.137,3.124c-2.841-1.137-6.533-2.841-7.67-2.841   c-1.136,0-3.976-1.136-2.556,3.409c1.42,4.544,2.841,8.521,3.124,11.361c0.285,2.84,0.285,3.977,0.285,6.817   s-3.978,3.408-4.546-0.284c-0.567-3.693-1.136-9.374-2.84-14.202c-1.704-4.829-5.396-11.078-7.101-13.351   c-1.705-2.272-3.978-5.396-5.682-1.988s-2.557,6.817-3.125,9.09c-0.567,2.271-4.26,2.271-3.124-1.421   c1.137-3.692,3.124-12.214,2.557-17.326c-0.568-5.113-3.125-11.362-5.681-17.61c-2.557-6.25-5.965-10.794-11.362-17.327   c-5.396-6.533-9.941-10.51-13.065-13.918c-3.125-3.408-5.113-5.112-4.545-1.705c0.568,3.409,1.42,8.521,2.272,12.499   c0.852,3.977-3.125,4.26-4.261,0.852c-1.137-3.408-2.557-7.953-4.261-10.51c-1.704-2.556-3.409-4.828-5.113-1.704   s-3.977,6.816-4.544,9.657c-0.568,2.841-6.817,5.397-4.829,0.853s3.692-7.669,5.396-12.498c1.705-4.829,2.841-10.794,0.568-14.202   s-7.953-5.965-10.794-8.237s-8.237-6.533-8.237-6.533s2.557,4.261,3.125,7.953c0.567,3.692,1.704,6.533,1.704,11.078   s-0.284,13.065-2.272,19.314c-1.988,6.25-7.386,17.327-9.089,21.304c-1.705,3.977-7.67,15.622-9.374,20.167   s-1.988,5.681-1.988,5.681s-6.249,1.988-4.261-3.692s3.692-10.794,4.829-15.055c1.136-4.26,2.272-9.373-1.137-6.533   c-3.408,2.841-6.248,5.682-8.521,7.67c-2.273,1.988-6.249,0.284-3.125-2.841c3.125-3.124,9.373-7.385,12.498-11.077   c3.124-3.692,6.249-8.521,7.386-12.782c1.135-4.261,3.692-13.065,2.84-19.883s-7.669-25.848-10.794-33.233   c-3.124-7.386-10.225-22.155-15.906-29.825c-5.681-7.668-9.658-13.065-17.611-18.179c-7.953-5.112-15.622-9.657-22.439-15.338   C269.971,309.437,250.94,293.814,250.94,293.814z"
   id="path147" />
	<path
   fill="#333333"
   d="M352.486,502.729c5.374,8.274,14.977,13.505,24.701,13.086c3.157-0.138,4.81-4.047,2.413-6.944   c-0.747-0.902,1.036-2.113,1.316-1.482c4.827,10.869,18.789,11.85,27.595,6.089c9.805-6.414,14.083-16.348,20.782-25.92   c2.248-3.212,2.938-6.91,4.997-10.108c6.919-10.743,10.21-23.633,13.357-36.856c0.462-1.938,1.286-3.838,1.744-5.806   c2.219-9.526,3.019-18.728,4.781-28.064c3.362-17.803,2.416-36.509-0.283-54.821c-0.148-1.007,0.496-2.381,0.178-3.666   c-5.023-20.322-11.22-39.249-19.209-57.971c-7.58-17.762-15.556-35.351-28.283-51.508c-1.272-1.614-1.83-3.559-3.078-5.213   c-10.089-13.377-18.771-26.209-29.992-37.866c-3.72-3.863-7.709-7.872-12.185-11.626c-7.702-6.46-15.027-12.214-23.707-17.462   c-0.972-0.587-2.2-1.052-3.177-1.555c-9.467-4.878-19.961-8.471-30.522-7.702c-7.851,0.571-15.579,3.984-20.131,11.101   c-9.247,14.459-15.281,28.983-20.488,44.571c-2.695,8.073-2.627,24.925-1.703,25.28c0.922,0.355,5.223-5.563,7.895-9.188   c0.619-0.841,2.593-5.209,3.722-5.334c0.312-0.035-0.994,2.482-1.198,3.058c-0.833,2.348-1.969,4.081-4.038,6.763   c-2.664,3.454-4.394,7.622-8,9.412c-0.741,0.368,0.109-1.485,0.199-2.438c0,0.096,0,0.189-0.142,0.142   c0,0-2.272-14.486,0.284-24.144c2.556-9.658,8.806-26.416,12.498-32.949c3.692-6.533,8.805-17.895,12.781-21.019   s9.658-7.953,21.872-7.385c12.214,0.568,20.734,2.556,31.244,9.658c10.51,7.101,24.712,19.599,31.245,24.996   s17.043,19.031,24.712,28.688c7.669,9.658,17.043,23.008,23.007,32.381c5.966,9.374,16.191,30.961,20.736,41.755   c4.544,10.794,12.214,30.393,14.77,41.755c2.557,11.361,5.966,29.824,5.681,43.742c-0.283,13.918-4.261,44.027-6.816,56.241   c-2.557,12.214-6.817,25.848-9.941,33.233c-3.124,7.385-12.498,24.711-17.043,30.961c-4.545,6.248-8.806,11.361-12.781,14.77   c-3.978,3.409-9.658,7.953-13.919,7.385c-4.26-0.567-9.941-1.704-12.214-2.272c-2.272-0.567-3.125-0.567-5.681-0.283   c-2.557,0.283-13.065,0-18.463-3.125c-5.396-3.124-14.486-11.077-16.19-18.463c-1.704-7.385-2.557-11.93,0.568-17.043   c3.124-5.112,3.124-7.101,3.976-10.793c0.853-3.693-0.567-16.759-2.271-23.575c-1.704-6.818-8.237-23.576-10.51-28.121   c-2.272-4.544-5.113-9.373-7.386-11.077c-2.272-1.705-6.533-3.125-9.941-4.261c-3.408-1.137-7.953-3.409-10.793-6.249   c-2.841-2.841-6.817-3.409-10.51-6.817s-8.806-7.385-13.635-14.202c-4.828-6.817-5.112-7.669-7.101-9.374   c-1.988-1.703-6.533-3.977-9.089-7.669c-2.558-3.692-4.546-9.373-6.25-12.498c-1.704-3.124-6.816-5.965-9.089-10.509   c-2.272-4.546-5.113-12.782-6.817-21.02s-0.852-13.066-0.852-16.759c0-3.692-0.568-9.942,0.283-14.486   c0.853-4.545,1.705-10.793,3.409-16.474c1.704-5.682,3.124-15.055,5.396-17.611c2.272-2.557,4.829-6.817,4.829-6.817l1.704,0.497   c0,0-5.113,4.616-6.533,9.729c-1.42,5.113-2.557,7.669-2.557,11.078c0,3.409,0.284,4.26-1.136,7.669   c-1.421,3.409-2.272,5.681-2.557,9.373c-0.085,1.107-0.649,2.044-0.599,2.977c0.626,11.504-1.252,22.863,1.591,34.306   c1.591,6.409,3.56,12.583,8.032,17.612c2.429,2.73,6.276,3.015,9.551,1.698c0.479-0.192,1.135-0.775,0.783-1.276   c-1.092-1.551-2.3-3.021-2.174-4.898c1.777,3.168,3.496,6.592,6.817,8.521c-2.89-1.514-7.297-2.464-9.941-0.284   c2.561,6.099,4.373,12.463,8.969,17.46c4.154,4.519,9.688,7.319,15.743,8.104c-2.251,0.177-4.145,1.173-3.409,3.692   c4.931,16.891,23.175,26.353,39.576,31.516c4.502,1.415,8.969-1.202,13.256-2.827c0.447,3.428-4.625,3.491-3.659,6.808   c0.908,3.118,3.257,5.2,5.08,7.679c9.962,13.538,13.029,29.993,15.052,46.334c0.741,5.984,1.774,12.385-1.793,17.604   c-6.076,8.889-5.389,19.279,0.375,27.241"
   id="path149" />
</g>

</svg>