<?xml version="1.0" encoding="UTF-8" standalone="no"?>
<svg
xmlns="http://www.w3.org/2000/svg"
width="382.519"
height="431.189"
viewBox="10 150 482.519 581.189">
<path fill="#dddddd" d="M166.863,155.484c9.34,0.849,17.043,2.272,21.02,8.521c3.977,6.249,9.374,16.758,11.646,23.576   c2.272,6.817,8.521,16.758,10.794,23.007c2.271,6.249,8.11,32.397,7.953,41.755c-0.158,9.356-0.285,6.249-0.285,6.249   s6.533,9.658,9.089,14.77c2.556,5.113,6.817,14.771,7.102,25.564c0.284,10.793,2.272,10.226,2.272,13.067   c0,2.84-1.705,7.669-1.989,12.781c-0.284,5.112,1.704,7.67,1.136,13.066c-0.568,5.396-4.261,18.179-5.681,24.712   s-3.125,19.031-5.113,23.007c-1.988,3.978-7.101,10.227-7.101,10.227s4.261,13.634,3.692,21.587   c-0.568,7.953-3.124,22.439-4.26,25.279c-1.137,2.841,1.704,12.782,1.704,12.782s1.704,23.576,1.136,32.95   c-0.567,9.373-0.852,21.303-3.408,28.688c-2.556,7.386-3.409,11.931-8.238,17.043c-4.829,5.113-18.747,13.066-25.563,16.19   c-6.817,3.125-19.031,7.385-30.109,9.09c-11.078,1.704-49.14,2.556-58.229,1.136s-17.895-1.42-22.724-0.853   c-4.829,0.568-10.793,2.558-18.747,2.272c-7.953-0.283-18.463-2.556-24.427-1.987c-5.965,0.567-9.658,1.704-13.634,1.136   s-9.374-1.704-11.362-10.226s-2.84-24.712-2.557-35.506c0.284-10.794,3.693-46.867,3.977-52.548   c0.284-5.682,3.125-34.086,4.261-41.187c1.136-7.102,3.977-24.712,4.829-28.973c0.852-4.261,0.852-14.202,3.408-21.02   c2.557-6.816,4.829-13.35,4.829-13.35s-0.853-4.545,0.852-11.361c1.704-6.817,10.793-25.28,11.93-28.121s5.397-21.02,8.237-26.984   c2.84-5.965,6.533-17.895,11.646-26.132c5.113-8.238,17.611-27.553,24.428-36.642s23.007-28.688,30.676-36.642   c7.669-7.953,26.133-24.711,33.518-28.972C150.957,159.177,160.614,154.916,166.863,155.484z" id="path111" />
<path fill="#dddddd" d="M306.329,156.053c15.063,1.004,31.245,7.953,40.334,15.622c9.09,7.669,23.292,18.747,33.518,30.108    c10.226,11.362,24.996,31.245,30.961,40.903s15.054,25.564,19.884,36.358c4.828,10.793,10.793,25.279,14.201,35.505    c3.409,10.226,11.362,42.038,11.362,42.038s3.977,8.521,5.965,17.327s11.646,55.673,13.065,67.603s5.681,80.101,5.681,89.475    c0,9.373-0.567,15.054-3.124,17.61s-8.805,3.692-14.486,3.977c-5.681,0.284-19.03,3.408-25.279,4.261    c-6.25,0.852-15.055,3.125-21.871,4.261c-6.818,1.137-23.008,3.692-29.825,3.692s-29.257,0-40.619-1.421    c-11.361-1.42-23.574-1.42-31.812-5.396c-8.237-3.978-21.02-9.942-28.688-15.623c-7.669-5.682-14.771-14.202-16.474-21.02    c-1.705-6.816-5.966-28.688-5.397-42.606s1.42-36.357,1.42-50.561c0-14.201-1.704-19.599-2.272-25.279s-2.556-14.202-2.272-26.7    c0.284-12.498,0.568-35.221,0.568-35.221s-7.101-5.682-10.226-17.043c-3.125-11.362-3.125-17.895-3.408-29.541    c-0.284-11.646,1.42-17.327,2.841-25.563c1.42-8.238,1.988-17.611,4.828-20.735c2.84-3.125,5.965-7.669,5.965-7.669    s-2.557-13.35-0.284-21.872c2.272-8.521,6.817-23.292,12.214-33.801c5.397-10.509,11.078-19.599,15.623-23.007    C293.262,158.325,302.068,155.769,306.329,156.053z" id="path115" />
<path fill="#333333" d="M464.399,388.826c-0.913-5.025-5.254-20.877-5.254-20.877l-1.988-16.475c0,0,10.793,36.073,16.189,68.455   c3.317,19.898,6.818,42.891,7.386,62.773s2.166,32.027,1.704,51.412c-0.284,11.93-0.771,14.872-5.112,17.043   c-5.681,2.84-8.521,2.272-14.203,2.84c-5.057,0.506-10.293,1.09-15.306,2.975c-3.103,1.165-6.703,0.009-10.095,0.939   c-2.33,0.639-4.876,2.518-7.16,3.202c-2.663,0.8-4.851-0.133-7.601,0.315c-7.684,1.25-14.564,4.109-22.209,5.019   c-7.709,0.916-15.252,0.195-22.984,0.758c-13.144,0.958-25.364-0.613-37.038-2.332c-7.373-1.086-14.357-1.548-21.76-3.633   c-6.829-1.922-13.205-5.803-19.104-9.343c-6.738-4.044-16.827-7.273-24.07-16.221c-4.77-5.893-8.034-13.378-9.971-21.365   c-4.007-16.521-4.227-32.604-3.095-49.078c1.062-15.474,1.176-31.125,0.284-46.867c-0.134-2.365-0.439-12.608-1.083-15.283   c-3.584-14.923-2.349-22.143-2.326-36.98c0.011-6.689,0.877-13.692,1.704-20.736c0,0,0.994,28.505,0.994,37.068   c0,12.498,2.557,16.759,3.964,30.333c0.963,9.295,0.507,18.03,0.439,27.186c-0.143,19.174-2.993,40.004-0.574,60.185   c1.036,8.65,2.743,17.248,6.539,25.029c2.328,4.772,5.038,9.185,8.609,12.364c4.164,3.709,9.114,6.365,14.17,9.121   c7.015,3.824,13.795,7.341,21.038,10.436c4.386,1.874,9.111,1.98,13.885,3.128c6.28,1.511,11.852,0.803,18.087,2.366   c1.76,0.441,3.808,0.832,5.731,0.931c19.081,0.982,25.07,5.299,40.335-5.681c-1.109,2.62-3.847,3.445-5.966,5.112   c4.642,0.319,9.279,0.029,13.915-0.104c2.32-0.067,4.269-1.516,6.562-2.067c3.439-0.828,7.312-0.509,10.734-1.136   c2.999-0.55,5.1-0.858,7.799-1.82c8.249-2.94,16.617-3.654,25.508-5.475c2.775-0.569,5.466-0.616,8.198-1.043   c4.716-0.735,7.503,0.594,11.858-1.045c5.154-1.938,6.805-9.519,6.889-14.293c0.157-9.016,0.254-18.397-0.712-27.821   c-1.744-17.015-1.629-33.766-3.549-50.575l-0.674-11.917c-1.327-10.527-1.894-16.3-4.017-26.911   c-2.138-10.688-4.284-20.583-6.955-30.763" id="path117" />
<path fill="#333333" d="M306.897,544.058c0,0-20.451,0-20.451-10.794s11.361-19.884,22.439-24.996   c11.077-5.113,31.528-11.362,31.528-11.362s-20.61,8.696-28.404,12.498c-11.646,5.681-20.735,15.055-21.587,19.031   C289.57,532.411,285.026,538.66,306.897,544.058z" id="path119" />
<path fill="#333333" d="M407.59,516.931c14.405,5.42,31.662,8.145,46.193,13.359c7.637,2.74,15.249,5.792,20.729,12.3   c1.188,1.411,0.275,3.196-1.328,3.828c-3.106,1.224-6.385,0.971-9.637,0.621c2.464,0.224,4.797-0.6,7.035-1.336   c1.338-0.441,1.98-2.417,0.57-3.646c-2.919-2.545-8.6-6.237-34.082-13.264c-7.449-2.055-14.82-2.398-22.334-4.367   c-3.649-0.956-9.013-2.689-12.259-4.654L407.59,516.931z" id="path121" />
<path fill="#333333" d="M198.312,541.021c-14.853,10.85-31.468,13.946-49.263,17.652c-10.133,2.111-19.793,1.716-29.763,1.716   c-10.936,0-18.389-1.485-27.837-1.981c-7.972-0.419-15.937-0.952-23.858-0.358c-4.688,0.352-6.96,3.05-17.328,2.774   c-6.202-0.164-19.883-2.423-19.883-2.423c-7.812-0.568-12.146,2.84-18.513,0.591c-4.766-1.683-7.051-5.42-7.903-11.101   c-0.175-1.165-0.842-4.777-1.071-6.541c-2.183-16.876-0.776-33.793,0.629-49.979c0.412-4.745,0.405-9.658,1.151-14.491   c2.095-13.566,1.417-27.385,3.64-41.554c1.128-7.189,1.784-14.25,3.319-21.22c1.022-4.639,1.349-9.51,2.613-14.472   c0.315-1.234,1.156-0.425,1.224,0.008c0.875,5.557,1.417,10.487,3.264,16.026c-2.379-9.008-0.426-13.635-2.305-27.691   c-1.091-8.162,2.447-17.33,5.429-24.432l-0.994-6.816c-3.271,9.544-5.681,15.196-8.376,35.246   c-2.994,22.273-6.82,42.582-8.524,68.43c-0.414,6.278-0.406,10.004-1.344,16.017c-1.344,8.624-2.159,19.004-2.287,27.448   c-0.254,16.756-1.423,33.441,2.941,50.229c1.335,5.136,5.531,8.199,10.912,8.389c6.877,0.242,16.195-0.819,16.195-0.819   c5.929,0.179,12.678,1.56,19.457,1.715c6.95,0.16,13.928-0.919,20.081-1.72c11.906-1.551,23.562,0.677,35.45,0.999   c15.765,0.426,29.806,1.26,45.708-1.286c2.108-0.338,6.653-1.847,8.708-2.48c4.309-1.327,10.411-2.443,14.503-4.03   c10.934-4.243,18.682-7.101,28.509-13.507c7.739-5.045,11.411-13.605,14.252-21.951c3.249-9.543,4.573-19.424,4.21-29.461   c-0.046-1.261,0.616-2.856,0.544-4.245c-0.718-13.679-0.65-28.882-3.491-43.651c0.151,0.781-0.852,2.485-1.043,2.96   c-0.533,1.321-0.909,2.791-0.909,2.791s1.608,8.797,1.863,13.034c0.195,3.238,0.881,10.723,0.834,14.044   c-0.07,4.984-0.153,9.307-0.443,15.063c-0.341,6.781-1.011,16.659-2.602,24.321c-1.37,6.597-3.645,11.403-4.41,12.893   C209.043,532.127,207.449,534.346,198.312,541.021z" id="path123" />
<path fill="#333333" d="M219.695,259.586c-0.625-8.426-0.112-19.766-1.832-28.351c-1.658-8.283-3.66-15.868-6.528-23.53   c-2.273-6.073-6.672-11.101-8.88-17.224c-1.182-3.278-1.973-6.64-3.354-9.859c-0.941-2.196-1.553-4.897-3.025-7.271   c-3.191-5.145-5.152-8.264-9.751-12.167c-2.904-2.464-7.553-5.179-10.955-6.075c-5.409-1.425-11.114-1.408-16.797-0.197   c-10.528,2.245-17.541,9.135-26.002,15.629c-4.768,3.659-9.746,8.377-13.931,12.282c-5.135,4.791-10.076,9.57-14.786,15.125   c-5.4,6.368-10.701,10.937-15.53,17.328c-10.087,13.35-19.449,25.646-28.794,40.306c-1.799,2.822-3.851,5.762-5.217,8.736   c-6.879,14.978-13.867,29.734-18.252,45.544c-0.924,3.332-0.567,6.667-2.222,9.685c-6.401,11.675-11.929,23.476-12.952,36.627   c-0.511,6.574,2.885,12.472,7.789,16.746c9.986,8.707,21.254,15.42,34.198,18.228c9.459,2.054,14.813,1.446,24.173,2.65   c3.647,0.469,10.828,1.756,14.015,2.832c10.791,3.647,20.983,7.368,32.188,10.196c5.596,1.412,11.019,1.109,16.571,1.182   c7.2,0.093,14.238-0.331,21.445-1.002c10.512-0.979,20.945-0.124,31.293-2.175c3.362-0.666,6.478-2.207,9.751-3.506   c3.523-1.399,6.08-3.649,8.591-6.179c6.772-6.825,6.836-16.51,9.162-25.351c1.002-3.812,1.009-8.169,2.427-12.159   c2.958-8.319,5.283-17.089,4.39-25.903c-0.403-3.979-1.631-8.575,0.112-12.852c0.958-2.354,0.781-5.011,0.276-7.563   c-0.43-2.169-0.849-4.177-1.28-6.333c-1.484-7.437,0.993-15.221-2.801-21.823c-0.492-0.855-0.382-2.449-1.017-3.602   c-7.366-13.365-15.442-24.766-24.637-37.366c-5.356-7.339-8.791-15.567-9.568-24.646c0.377,4.409,1.186,8.322,2.039,12.429   c1.417,6.813,4.375,12.505,8.186,18.348c4.015,6.155,8.456,10.911,12.595,17.069c4.534,6.746,6.959,13.712,10.421,20.745   c2.571,5.222,1.372,11.25,2.264,16.907c0.58,3.681,1.508,7.078,1.74,10.264c0.445,6.111-5.171,11.595-2.749,18.093   c0.401,1.077,1.241,2.064,1.438,3.196c0.604,3.463,0.35,6.844-0.607,10.15c-3.051,10.546-5.095,20.858-7.776,31.296   c-2.547,9.917-7.452,19.373-16.837,23.688c-7.547,3.471-15.937,4.626-24.062,4.576c-11.563-0.07-23.12,0.566-34.656,1.276   c-4.969,0.307-9.81-0.294-14.996-1.298c-11.996-2.32-22.01-7.731-33.904-10.441c-13.76-3.135-26.427-4.804-40.006-6.439   c-5.636-0.679-11.075-4.237-16.884-6.854c-5.648-2.543-11.378-5.928-15.384-10.022c-3.44-3.517-5.366-8.059-5.771-13.539   c-0.661-8.936,4.606-16.757,7.647-24.974c0.906-2.448,1.919-3.906,2.771-6.365c0.928-2.68,2.996-5.251,3.737-10.401   c0.734-5.104,2.935-11.07,4.552-15.807c0.855-2.506,1.904-4.958,2.857-7.477c1.988-5.255,4.887-9.273,7.059-16.444   c1.163-3.839,2.892-6.935,4.871-10.398c2.272-3.977,4.797-8.387,7.129-12.003c3.84-5.953,7.51-12.32,12.304-18.124   c6.18-7.481,12.463-15.811,18.486-23.273c2.149-2.663,4.921-4.809,7.083-7.649c8.716-11.452,18.623-20.613,28.989-29.42   c5.817-4.942,12.489-9.74,19.317-13.49c10.083-5.539,20.357-6.498,29.465-1.429c14.561,8.104,14.304,19.657,19.091,30.938   c3.137,7.393,7.375,14.232,10.499,21.569c2.29,5.377,3.718,11.153,4.997,16.951c2.13,9.658,1.146,17.631,2.414,24.712   L219.695,259.586z" id="path139" />
<path fill="none" stroke="#333333" stroke-width="1.7043" d="M16.319,399.763c0,0,4.769,36.951,12.214,53.969   c7.953,18.179,23.291,38.346,26.7,42.321c3.408,3.978,6.533,10.226,9.941,13.919" id="path141" />
<path fill="#333333" d="M221.542,394.507c-0.197,2.744,0.8,9.019,1.14,11.682c2.227,17.476-2.357,33.519-9.355,49.271   c-4.36,9.816-13.063,18.097-21.479,24.923c-3.875,3.144-8.526,6.358-12.969,8.364c-9.667,4.361-16.707,9.01-23.519,11.141   c-6.834,2.139-11.86,4.8-18.808,7.212c-7.662,2.659-14.88,5.694-22.683,8.062c-12.562,3.814-24.787,5.184-37.697,8.275   c-4.852,1.161-10.164,3.085-14.832,4.854c-4.119,1.562-6.818,2.498-11.021,3.623c-10.366,2.774-19.602,6.768-28.954,12.132   c-2.311,1.325-4.744,2.376-6.241,4.75c-0.924,1.466-0.084,2.906,1.371,3.562c4.127,1.863,8.618,1.896,13.032,2.35   c-5.399-0.335-11.187,1.508-16.033-1.399c-2.705-1.623-1.663-5.866,1.011-7.643c5.042-3.35,9.593-6.499,15.096-8.348   c11.793-3.961,22.372-9.528,34.519-12.932c3.129-0.878,7.596-2.6,5.836-6.521c-1.938-4.315-6.439-7.062-7.48-12.015   c3.357,3.018,5.695,6.848,9.192,9.82c3.976,3.379,9.151,3.2,14.056,2.183c5.444-1.13,10.33-2.796,15.666-3.481   c2.092-0.269,3.784-0.656,5.664-0.959c2.575-0.414,4.657-1.379,7.155-2.023c5.128-1.322,10.176-2.446,14.969-4.516   c8.844-3.816,17.888-6.433,26.658-10.317c7.675-3.399,14.841-7.095,22.388-11.115c9.942-5.297,14.935-10.089,21.73-16.517   c5.255-4.971,10.652-12.071,13.239-19.342c2.54-7.133,5.026-13.611,6.201-21.017c0.912-5.746-0.1-16.509-0.125-16.734   c-0.71-6.107-1.77-9.306-4.26-11.646L221.542,394.507z" id="path143" />
<path fill="#333333" d="M352.486,502.729c5.374,8.274,14.977,13.505,24.701,13.086c3.157-0.138,4.81-4.047,2.413-6.944   c-0.747-0.902,1.036-2.113,1.316-1.482c4.827,10.869,18.789,11.85,27.595,6.089c9.805-6.414,14.083-16.348,20.782-25.92   c2.248-3.212,2.938-6.91,4.997-10.108c6.919-10.743,10.21-23.633,13.357-36.856c0.462-1.938,1.286-3.838,1.744-5.806   c2.219-9.526,3.019-18.728,4.781-28.064c3.362-17.803,2.416-36.509-0.283-54.821c-0.148-1.007,0.496-2.381,0.178-3.666   c-5.023-20.322-11.22-39.249-19.209-57.971c-7.58-17.762-15.556-35.351-28.283-51.508c-1.272-1.614-1.83-3.559-3.078-5.213   c-10.089-13.377-18.771-26.209-29.992-37.866c-3.72-3.863-7.709-7.872-12.185-11.626c-7.702-6.46-15.027-12.214-23.707-17.462   c-0.972-0.587-2.2-1.052-3.177-1.555c-9.467-4.878-19.961-8.471-30.522-7.702c-7.851,0.571-15.579,3.984-20.131,11.101   c-9.247,14.459-15.281,28.983-20.488,44.571c-2.695,8.073-2.627,24.925-1.703,25.28c0.922,0.355,5.223-5.563,7.895-9.188   c0.619-0.841,2.593-5.209,3.722-5.334c0.312-0.035-0.994,2.482-1.198,3.058c-0.833,2.348-1.969,4.081-4.038,6.763   c-2.664,3.454-4.394,7.622-8,9.412c-0.741,0.368,0.109-1.485,0.199-2.438c0,0.096,0,0.189-0.142,0.142   c0,0-2.272-14.486,0.284-24.144c2.556-9.658,8.806-26.416,12.498-32.949c3.692-6.533,8.805-17.895,12.781-21.019   s9.658-7.953,21.872-7.385c12.214,0.568,20.734,2.556,31.244,9.658c10.51,7.101,24.712,19.599,31.245,24.996   s17.043,19.031,24.712,28.688c7.669,9.658,17.043,23.008,23.007,32.381c5.966,9.374,16.191,30.961,20.736,41.755   c4.544,10.794,12.214,30.393,14.77,41.755c2.557,11.361,5.966,29.824,5.681,43.742c-0.283,13.918-4.261,44.027-6.816,56.241   c-2.557,12.214-6.817,25.848-9.941,33.233c-3.124,7.385-12.498,24.711-17.043,30.961c-4.545,6.248-8.806,11.361-12.781,14.77   c-3.978,3.409-9.658,7.953-13.919,7.385c-4.26-0.567-9.941-1.704-12.214-2.272c-2.272-0.567-3.125-0.567-5.681-0.283   c-2.557,0.283-13.065,0-18.463-3.125c-5.396-3.124-14.486-11.077-16.19-18.463c-1.704-7.385-2.557-11.93,0.568-17.043   c3.124-5.112,3.124-7.101,3.976-10.793c0.853-3.693-0.567-16.759-2.271-23.575c-1.704-6.818-8.237-23.576-10.51-28.121   c-2.272-4.544-5.113-9.373-7.386-11.077c-2.272-1.705-6.533-3.125-9.941-4.261c-3.408-1.137-7.953-3.409-10.793-6.249   c-2.841-2.841-6.817-3.409-10.51-6.817s-8.806-7.385-13.635-14.202c-4.828-6.817-5.112-7.669-7.101-9.374   c-1.988-1.703-6.533-3.977-9.089-7.669c-2.558-3.692-4.546-9.373-6.25-12.498c-1.704-3.124-6.816-5.965-9.089-10.509   c-2.272-4.546-5.113-12.782-6.817-21.02s-0.852-13.066-0.852-16.759c0-3.692-0.568-9.942,0.283-14.486   c0.853-4.545,1.705-10.793,3.409-16.474c1.704-5.682,3.124-15.055,5.396-17.611c2.272-2.557,4.829-6.817,4.829-6.817l1.704,0.497   c0,0-5.113,4.616-6.533,9.729c-1.42,5.113-2.557,7.669-2.557,11.078c0,3.409,0.284,4.26-1.136,7.669   c-1.421,3.409-2.272,5.681-2.557,9.373c-0.085,1.107-0.649,2.044-0.599,2.977c0.626,11.504-1.252,22.863,1.591,34.306   c1.591,6.409,3.56,12.583,8.032,17.612c2.429,2.73,6.276,3.015,9.551,1.698c0.479-0.192,1.135-0.775,0.783-1.276   c-1.092-1.551-2.3-3.021-2.174-4.898c1.777,3.168,3.496,6.592,6.817,8.521c-2.89-1.514-7.297-2.464-9.941-0.284   c2.561,6.099,4.373,12.463,8.969,17.46c4.154,4.519,9.688,7.319,15.743,8.104c-2.251,0.177-4.145,1.173-3.409,3.692   c4.931,16.891,23.175,26.353,39.576,31.516c4.502,1.415,8.969-1.202,13.256-2.827c0.447,3.428-4.625,3.491-3.659,6.808   c0.908,3.118,3.257,5.2,5.08,7.679c9.962,13.538,13.029,29.993,15.052,46.334c0.741,5.984,1.774,12.385-1.793,17.604   c-6.076,8.889-5.389,19.279,0.375,27.241"
id="path149" /></svg>